<svg baseProfile="full" height="300px" version="1.1" viewBox="0 0 300 300" width="300px" xml:space="preserve" xmlns="http://www.w3.org/2000/svg" xmlns:rdkit="http://www.rdkit.org/xml" xmlns:xlink="http://www.w3.org/1999/xlink">
<!-- END OF HEADER -->
<rect height="300.0" style="opacity:1.0;fill:#FFFFFF;stroke:none" width="300.0" x="0.0" y="0.0"> </rect>
<path class="bond-0 atom-0 atom-1" d="M 264.7,167.2 L 232.5,172.3" style="fill:none;fill-rule:evenodd;stroke:#FF0000;stroke-width:2.0px;stroke-linecap:butt;stroke-linejoin:miter;stroke-opacity:1"/>
<path class="bond-0 atom-0 atom-1" d="M 232.5,172.3 L 200.3,177.4" style="fill:none;fill-rule:evenodd;stroke:#000000;stroke-width:2.0px;stroke-linecap:butt;stroke-linejoin:miter;stroke-opacity:1"/>
<path class="bond-0 atom-0 atom-1" d="M 262.3,151.7 L 230.1,156.8" style="fill:none;fill-rule:evenodd;stroke:#FF0000;stroke-width:2.0px;stroke-linecap:butt;stroke-linejoin:miter;stroke-opacity:1"/>
<path class="bond-0 atom-0 atom-1" d="M 230.1,156.8 L 197.9,161.9" style="fill:none;fill-rule:evenodd;stroke:#000000;stroke-width:2.0px;stroke-linecap:butt;stroke-linejoin:miter;stroke-opacity:1"/>
<path class="bond-1 atom-1 atom-2" d="M 199.1,169.7 L 163.7,239.2" style="fill:none;fill-rule:evenodd;stroke:#000000;stroke-width:2.0px;stroke-linecap:butt;stroke-linejoin:miter;stroke-opacity:1"/>
<path class="bond-2 atom-2 atom-3" d="M 163.7,239.2 L 86.5,227.0" style="fill:none;fill-rule:evenodd;stroke:#000000;stroke-width:2.0px;stroke-linecap:butt;stroke-linejoin:miter;stroke-opacity:1"/>
<path class="bond-2 atom-2 atom-3" d="M 154.5,222.0 L 100.5,213.4" style="fill:none;fill-rule:evenodd;stroke:#000000;stroke-width:2.0px;stroke-linecap:butt;stroke-linejoin:miter;stroke-opacity:1"/>
<path class="bond-3 atom-3 atom-4" d="M 86.5,227.0 L 13.6,199.1" style="fill:none;fill-rule:evenodd;stroke:#000000;stroke-width:2.0px;stroke-linecap:butt;stroke-linejoin:miter;stroke-opacity:1"/>
<path class="bond-4 atom-4 atom-5" d="M 13.6,199.1 L 74.3,149.9" style="fill:none;fill-rule:evenodd;stroke:#000000;stroke-width:2.0px;stroke-linecap:butt;stroke-linejoin:miter;stroke-opacity:1"/>
<path class="bond-5 atom-5 atom-6" d="M 74.3,149.9 L 76.0,118.0" style="fill:none;fill-rule:evenodd;stroke:#000000;stroke-width:2.0px;stroke-linecap:butt;stroke-linejoin:miter;stroke-opacity:1"/>
<path class="bond-5 atom-5 atom-6" d="M 76.0,118.0 L 77.6,86.0" style="fill:none;fill-rule:evenodd;stroke:#FF0000;stroke-width:2.0px;stroke-linecap:butt;stroke-linejoin:miter;stroke-opacity:1"/>
<path class="bond-6 atom-6 atom-7" d="M 91.1,80.2 L 117.5,97.3" style="fill:none;fill-rule:evenodd;stroke:#FF0000;stroke-width:2.0px;stroke-linecap:butt;stroke-linejoin:miter;stroke-opacity:1"/>
<path class="bond-6 atom-6 atom-7" d="M 117.5,97.3 L 143.9,114.5" style="fill:none;fill-rule:evenodd;stroke:#000000;stroke-width:2.0px;stroke-linecap:butt;stroke-linejoin:miter;stroke-opacity:1"/>
<path class="bond-7 atom-7 atom-1" d="M 143.9,114.5 L 199.1,169.7" style="fill:none;fill-rule:evenodd;stroke:#000000;stroke-width:2.0px;stroke-linecap:butt;stroke-linejoin:miter;stroke-opacity:1"/>
<path class="bond-8 atom-5 atom-3" d="M 74.3,149.9 L 86.5,227.0" style="fill:none;fill-rule:evenodd;stroke:#000000;stroke-width:2.0px;stroke-linecap:butt;stroke-linejoin:miter;stroke-opacity:1"/>
<path class="bond-9 atom-7 atom-5" d="M 143.9,114.5 L 74.3,149.9" style="fill:none;fill-rule:evenodd;stroke:#000000;stroke-width:2.0px;stroke-linecap:butt;stroke-linejoin:miter;stroke-opacity:1"/>
<path class="atom-0" d="M 266.1 157.5 Q 266.1 152.2, 268.7 149.2 Q 271.3 146.2, 276.2 146.2 Q 281.1 146.2, 283.7 149.2 Q 286.4 152.2, 286.4 157.5 Q 286.4 162.9, 283.7 165.9 Q 281.1 169.0, 276.2 169.0 Q 271.3 169.0, 268.7 165.9 Q 266.1 162.9, 266.1 157.5 M 276.2 166.5 Q 279.6 166.5, 281.4 164.2 Q 283.2 161.9, 283.2 157.5 Q 283.2 153.1, 281.4 151.0 Q 279.6 148.7, 276.2 148.7 Q 272.8 148.7, 271.0 150.9 Q 269.2 153.1, 269.2 157.5 Q 269.2 162.0, 271.0 164.2 Q 272.8 166.5, 276.2 166.5 " fill="#FF0000"/>
<path class="atom-6" d="M 68.2 72.0 Q 68.2 66.7, 70.9 63.7 Q 73.5 60.8, 78.4 60.8 Q 83.3 60.8, 85.9 63.7 Q 88.5 66.7, 88.5 72.0 Q 88.5 77.4, 85.9 80.4 Q 83.2 83.5, 78.4 83.5 Q 73.5 83.5, 70.9 80.4 Q 68.2 77.4, 68.2 72.0 M 78.4 81.0 Q 81.8 81.0, 83.6 78.7 Q 85.4 76.4, 85.4 72.0 Q 85.4 67.7, 83.6 65.5 Q 81.8 63.3, 78.4 63.3 Q 75.0 63.3, 73.2 65.4 Q 71.4 67.6, 71.4 72.0 Q 71.4 76.5, 73.2 78.7 Q 75.0 81.0, 78.4 81.0 " fill="#FF0000"/>
</svg>