<svg baseProfile="full" height="300px" version="1.1" viewBox="0 0 300 300" width="300px" xml:space="preserve" xmlns="http://www.w3.org/2000/svg" xmlns:rdkit="http://www.rdkit.org/xml" xmlns:xlink="http://www.w3.org/1999/xlink">
<!-- END OF HEADER -->
<rect height="300.0" style="opacity:1.0;fill:#FFFFFF;stroke:none" width="300.0" x="0.0" y="0.0"> </rect>
<path class="bond-0 atom-0 atom-1" d="M 46.7,127.5 L 60.4,145.0" style="fill:none;fill-rule:evenodd;stroke:#0000FF;stroke-width:2.0px;stroke-linecap:butt;stroke-linejoin:miter;stroke-opacity:1"/>
<path class="bond-0 atom-0 atom-1" d="M 60.4,145.0 L 74.1,162.5" style="fill:none;fill-rule:evenodd;stroke:#000000;stroke-width:2.0px;stroke-linecap:butt;stroke-linejoin:miter;stroke-opacity:1"/>
<path class="bond-0 atom-0 atom-1" d="M 37.7,134.6 L 51.4,152.1" style="fill:none;fill-rule:evenodd;stroke:#0000FF;stroke-width:2.0px;stroke-linecap:butt;stroke-linejoin:miter;stroke-opacity:1"/>
<path class="bond-0 atom-0 atom-1" d="M 51.4,152.1 L 65.1,169.5" style="fill:none;fill-rule:evenodd;stroke:#000000;stroke-width:2.0px;stroke-linecap:butt;stroke-linejoin:miter;stroke-opacity:1"/>
<path class="bond-1 atom-1 atom-2" d="M 69.6,166.0 L 126.2,157.9" style="fill:none;fill-rule:evenodd;stroke:#000000;stroke-width:2.0px;stroke-linecap:butt;stroke-linejoin:miter;stroke-opacity:1"/>
<path class="bond-2 atom-2 atom-3" d="M 126.2,157.9 L 165.9,198.9" style="fill:none;fill-rule:evenodd;stroke:#000000;stroke-width:2.0px;stroke-linecap:butt;stroke-linejoin:miter;stroke-opacity:1"/>
<path class="bond-3 atom-3 atom-4" d="M 165.9,198.9 L 217.2,173.8" style="fill:none;fill-rule:evenodd;stroke:#000000;stroke-width:2.0px;stroke-linecap:butt;stroke-linejoin:miter;stroke-opacity:1"/>
<path class="bond-4 atom-4 atom-5" d="M 217.2,173.8 L 273.8,165.7" style="fill:none;fill-rule:evenodd;stroke:#000000;stroke-width:2.0px;stroke-linecap:butt;stroke-linejoin:miter;stroke-opacity:1"/>
<path class="bond-5 atom-5 atom-6" d="M 273.8,165.7 L 270.4,142.4" style="fill:none;fill-rule:evenodd;stroke:#000000;stroke-width:2.0px;stroke-linecap:butt;stroke-linejoin:miter;stroke-opacity:1"/>
<path class="bond-5 atom-5 atom-6" d="M 270.4,142.4 L 267.1,119.1" style="fill:none;fill-rule:evenodd;stroke:#0000FF;stroke-width:2.0px;stroke-linecap:butt;stroke-linejoin:miter;stroke-opacity:1"/>
<path class="bond-6 atom-6 atom-7" d="M 257.7,110.3 L 233.4,113.8" style="fill:none;fill-rule:evenodd;stroke:#0000FF;stroke-width:2.0px;stroke-linecap:butt;stroke-linejoin:miter;stroke-opacity:1"/>
<path class="bond-6 atom-6 atom-7" d="M 233.4,113.8 L 209.1,117.2" style="fill:none;fill-rule:evenodd;stroke:#000000;stroke-width:2.0px;stroke-linecap:butt;stroke-linejoin:miter;stroke-opacity:1"/>
<path class="bond-7 atom-7 atom-8" d="M 209.1,117.2 L 152.9,107.5" style="fill:none;fill-rule:evenodd;stroke:#000000;stroke-width:2.0px;stroke-linecap:butt;stroke-linejoin:miter;stroke-opacity:1"/>
<path class="bond-8 atom-8 atom-2" d="M 152.9,107.5 L 126.2,157.9" style="fill:none;fill-rule:evenodd;stroke:#000000;stroke-width:2.0px;stroke-linecap:butt;stroke-linejoin:miter;stroke-opacity:1"/>
<path class="bond-9 atom-7 atom-4" d="M 209.1,117.2 L 217.2,173.8" style="fill:none;fill-rule:evenodd;stroke:#000000;stroke-width:2.0px;stroke-linecap:butt;stroke-linejoin:miter;stroke-opacity:1"/>
<path class="atom-0" d="M 13.6 113.0 L 15.8 113.0 L 15.8 119.9 L 24.1 119.9 L 24.1 113.0 L 26.3 113.0 L 26.3 129.2 L 24.1 129.2 L 24.1 121.7 L 15.8 121.7 L 15.8 129.2 L 13.6 129.2 L 13.6 113.0 " fill="#0000FF"/>
<path class="atom-0" d="M 30.8 113.0 L 36.1 121.6 Q 36.6 122.4, 37.5 124.0 Q 38.3 125.5, 38.4 125.6 L 38.4 113.0 L 40.5 113.0 L 40.5 129.2 L 38.3 129.2 L 32.6 119.8 Q 31.9 118.7, 31.2 117.5 Q 30.5 116.2, 30.3 115.8 L 30.3 129.2 L 28.2 129.2 L 28.2 113.0 L 30.8 113.0 " fill="#0000FF"/>
<path class="atom-6" d="M 262.1 101.1 L 267.4 109.6 Q 267.9 110.5, 268.8 112.0 Q 269.6 113.5, 269.7 113.6 L 269.7 101.1 L 271.8 101.1 L 271.8 117.2 L 269.6 117.2 L 263.9 107.9 Q 263.2 106.8, 262.5 105.5 Q 261.9 104.3, 261.6 103.9 L 261.6 117.2 L 259.5 117.2 L 259.5 101.1 L 262.1 101.1 " fill="#0000FF"/>
<path class="atom-6" d="M 273.7 101.1 L 275.9 101.1 L 275.9 107.9 L 284.2 107.9 L 284.2 101.1 L 286.4 101.1 L 286.4 117.2 L 284.2 117.2 L 284.2 109.8 L 275.9 109.8 L 275.9 117.2 L 273.7 117.2 L 273.7 101.1 " fill="#0000FF"/>
</svg>