<svg baseProfile="full" height="300px" version="1.1" viewBox="0 0 300 300" width="300px" xml:space="preserve" xmlns="http://www.w3.org/2000/svg" xmlns:rdkit="http://www.rdkit.org/xml" xmlns:xlink="http://www.w3.org/1999/xlink">
<!-- END OF HEADER -->
<rect height="300.0" style="opacity:1.0;fill:#FFFFFF;stroke:none" width="300.0" x="0.0" y="0.0"> </rect>
<path class="bond-0 atom-0 atom-1" d="M 13.6,122.9 L 81.9,116.5" style="fill:none;fill-rule:evenodd;stroke:#000000;stroke-width:2.0px;stroke-linecap:butt;stroke-linejoin:miter;stroke-opacity:1"/>
<path class="bond-1 atom-1 atom-2" d="M 81.9,116.5 L 121.5,172.4" style="fill:none;fill-rule:evenodd;stroke:#000000;stroke-width:2.0px;stroke-linecap:butt;stroke-linejoin:miter;stroke-opacity:1"/>
<path class="bond-2 atom-2 atom-3" d="M 121.5,172.4 L 189.7,166.1" style="fill:none;fill-rule:evenodd;stroke:#000000;stroke-width:2.0px;stroke-linecap:butt;stroke-linejoin:miter;stroke-opacity:1"/>
<path class="bond-3 atom-3 atom-4" d="M 189.7,166.1 L 188.9,234.6" style="fill:none;fill-rule:evenodd;stroke:#000000;stroke-width:2.0px;stroke-linecap:butt;stroke-linejoin:miter;stroke-opacity:1"/>
<path class="bond-4 atom-3 atom-5" d="M 189.7,166.1 L 257.7,174.1" style="fill:none;fill-rule:evenodd;stroke:#000000;stroke-width:2.0px;stroke-linecap:butt;stroke-linejoin:miter;stroke-opacity:1"/>
<path class="bond-5 atom-5 atom-6" d="M 257.7,174.1 L 286.4,111.8" style="fill:none;fill-rule:evenodd;stroke:#000000;stroke-width:2.0px;stroke-linecap:butt;stroke-linejoin:miter;stroke-opacity:1"/>
<path class="bond-6 atom-6 atom-7" d="M 286.4,111.8 L 236.0,65.4" style="fill:none;fill-rule:evenodd;stroke:#000000;stroke-width:2.0px;stroke-linecap:butt;stroke-linejoin:miter;stroke-opacity:1"/>
<path class="bond-7 atom-7 atom-8" d="M 236.0,65.4 L 211.7,79.0" style="fill:none;fill-rule:evenodd;stroke:#000000;stroke-width:2.0px;stroke-linecap:butt;stroke-linejoin:miter;stroke-opacity:1"/>
<path class="bond-7 atom-7 atom-8" d="M 211.7,79.0 L 187.4,92.6" style="fill:none;fill-rule:evenodd;stroke:#FF0000;stroke-width:2.0px;stroke-linecap:butt;stroke-linejoin:miter;stroke-opacity:1"/>
<path class="bond-8 atom-8 atom-3" d="M 178.7,111.3 L 184.2,138.7" style="fill:none;fill-rule:evenodd;stroke:#FF0000;stroke-width:2.0px;stroke-linecap:butt;stroke-linejoin:miter;stroke-opacity:1"/>
<path class="bond-8 atom-8 atom-3" d="M 184.2,138.7 L 189.7,166.1" style="fill:none;fill-rule:evenodd;stroke:#000000;stroke-width:2.0px;stroke-linecap:butt;stroke-linejoin:miter;stroke-opacity:1"/>
<path class="atom-8" d="M 167.3 99.0 Q 167.3 94.3, 169.6 91.7 Q 172.0 89.1, 176.3 89.1 Q 180.6 89.1, 182.9 91.7 Q 185.2 94.3, 185.2 99.0 Q 185.2 103.7, 182.8 106.4 Q 180.5 109.0, 176.3 109.0 Q 172.0 109.0, 169.6 106.4 Q 167.3 103.7, 167.3 99.0 M 176.3 106.8 Q 179.2 106.8, 180.8 104.9 Q 182.4 102.9, 182.4 99.0 Q 182.4 95.2, 180.8 93.2 Q 179.2 91.3, 176.3 91.3 Q 173.3 91.3, 171.7 93.2 Q 170.1 95.1, 170.1 99.0 Q 170.1 102.9, 171.7 104.9 Q 173.3 106.8, 176.3 106.8 " fill="#FF0000"/>
</svg>