<svg baseProfile="full" height="300px" version="1.1" viewBox="0 0 300 300" width="300px" xml:space="preserve" xmlns="http://www.w3.org/2000/svg" xmlns:rdkit="http://www.rdkit.org/xml" xmlns:xlink="http://www.w3.org/1999/xlink">
<!-- END OF HEADER -->
<rect height="300.0" style="opacity:1.0;fill:#FFFFFF;stroke:none" width="300.0" x="0.0" y="0.0"> </rect>
<path class="bond-0 atom-0 atom-1" d="M 286.4,142.6 L 178.9,142.6" style="fill:none;fill-rule:evenodd;stroke:#000000;stroke-width:2.0px;stroke-linecap:butt;stroke-linejoin:miter;stroke-opacity:1"/>
<path class="bond-1 atom-1 atom-2" d="M 178.9,142.6 L 115.8,55.7" style="fill:none;fill-rule:evenodd;stroke:#000000;stroke-width:2.0px;stroke-linecap:butt;stroke-linejoin:miter;stroke-opacity:1"/>
<path class="bond-2 atom-2 atom-3" d="M 115.8,55.7 L 13.6,88.9" style="fill:none;fill-rule:evenodd;stroke:#000000;stroke-width:2.0px;stroke-linecap:butt;stroke-linejoin:miter;stroke-opacity:1"/>
<path class="bond-3 atom-3 atom-4" d="M 13.6,88.9 L 13.6,196.3" style="fill:none;fill-rule:evenodd;stroke:#000000;stroke-width:2.0px;stroke-linecap:butt;stroke-linejoin:miter;stroke-opacity:1"/>
<path class="bond-4 atom-4 atom-5" d="M 13.6,196.3 L 56.4,210.2" style="fill:none;fill-rule:evenodd;stroke:#000000;stroke-width:2.0px;stroke-linecap:butt;stroke-linejoin:miter;stroke-opacity:1"/>
<path class="bond-4 atom-4 atom-5" d="M 56.4,210.2 L 99.3,224.2" style="fill:none;fill-rule:evenodd;stroke:#FF0000;stroke-width:2.0px;stroke-linecap:butt;stroke-linejoin:miter;stroke-opacity:1"/>
<path class="bond-5 atom-5 atom-1" d="M 128.8,211.7 L 153.9,177.1" style="fill:none;fill-rule:evenodd;stroke:#FF0000;stroke-width:2.0px;stroke-linecap:butt;stroke-linejoin:miter;stroke-opacity:1"/>
<path class="bond-5 atom-5 atom-1" d="M 153.9,177.1 L 178.9,142.6" style="fill:none;fill-rule:evenodd;stroke:#000000;stroke-width:2.0px;stroke-linecap:butt;stroke-linejoin:miter;stroke-opacity:1"/>
<path class="atom-5" d="M 102.8 229.6 Q 102.8 222.8, 106.2 219.0 Q 109.5 215.2, 115.8 215.2 Q 122.1 215.2, 125.4 219.0 Q 128.8 222.8, 128.8 229.6 Q 128.8 236.5, 125.4 240.4 Q 122.0 244.3, 115.8 244.3 Q 109.6 244.3, 106.2 240.4 Q 102.8 236.5, 102.8 229.6 M 115.8 241.1 Q 120.1 241.1, 122.4 238.2 Q 124.8 235.3, 124.8 229.6 Q 124.8 224.0, 122.4 221.2 Q 120.1 218.4, 115.8 218.4 Q 111.5 218.4, 109.1 221.2 Q 106.8 224.0, 106.8 229.6 Q 106.8 235.3, 109.1 238.2 Q 111.5 241.1, 115.8 241.1 " fill="#FF0000"/>
</svg>