<svg baseProfile="full" height="300px" version="1.1" viewBox="0 0 300 300" width="300px" xml:space="preserve" xmlns="http://www.w3.org/2000/svg" xmlns:rdkit="http://www.rdkit.org/xml" xmlns:xlink="http://www.w3.org/1999/xlink">
<!-- END OF HEADER -->
<rect height="300.0" style="opacity:1.0;fill:#FFFFFF;stroke:none" width="300.0" x="0.0" y="0.0"> </rect>
<path class="bond-0 atom-0 atom-1" d="M 243.3,158.2 L 209.4,156.3" style="fill:none;fill-rule:evenodd;stroke:#FF0000;stroke-width:2.0px;stroke-linecap:butt;stroke-linejoin:miter;stroke-opacity:1"/>
<path class="bond-0 atom-0 atom-1" d="M 209.4,156.3 L 175.4,154.5" style="fill:none;fill-rule:evenodd;stroke:#000000;stroke-width:2.0px;stroke-linecap:butt;stroke-linejoin:miter;stroke-opacity:1"/>
<path class="bond-1 atom-1 atom-2" d="M 175.4,154.5 L 131.1,222.3" style="fill:none;fill-rule:evenodd;stroke:#000000;stroke-width:2.0px;stroke-linecap:butt;stroke-linejoin:miter;stroke-opacity:1"/>
<path class="bond-2 atom-2 atom-3" d="M 131.1,222.3 L 50.2,217.8" style="fill:none;fill-rule:evenodd;stroke:#000000;stroke-width:2.0px;stroke-linecap:butt;stroke-linejoin:miter;stroke-opacity:1"/>
<path class="bond-3 atom-3 atom-4" d="M 50.2,217.8 L 66.1,196.4" style="fill:none;fill-rule:evenodd;stroke:#000000;stroke-width:2.0px;stroke-linecap:butt;stroke-linejoin:miter;stroke-opacity:1"/>
<path class="bond-4 atom-4 atom-5" d="M 85.9,168.1 L 107.5,135.1" style="fill:none;fill-rule:evenodd;stroke:#000000;stroke-width:2.0px;stroke-linecap:butt;stroke-linejoin:miter;stroke-opacity:1"/>
<path class="bond-5 atom-5 atom-6" d="M 124.8,106.8 L 138.8,82.2" style="fill:none;fill-rule:evenodd;stroke:#000000;stroke-width:2.0px;stroke-linecap:butt;stroke-linejoin:miter;stroke-opacity:1"/>
<path class="bond-6 atom-6 atom-7" d="M 138.8,82.2 L 57.9,77.7" style="fill:none;fill-rule:evenodd;stroke:#000000;stroke-width:2.0px;stroke-linecap:butt;stroke-linejoin:miter;stroke-opacity:1"/>
<path class="bond-7 atom-7 atom-8" d="M 57.9,77.7 L 13.6,145.5" style="fill:none;fill-rule:evenodd;stroke:#000000;stroke-width:2.0px;stroke-linecap:butt;stroke-linejoin:miter;stroke-opacity:1"/>
<path class="bond-8 atom-6 atom-1" d="M 138.8,82.2 L 175.4,154.5" style="fill:none;fill-rule:evenodd;stroke:#000000;stroke-width:2.0px;stroke-linecap:butt;stroke-linejoin:miter;stroke-opacity:1"/>
<path class="bond-9 atom-8 atom-3" d="M 13.6,145.5 L 50.2,217.8" style="fill:none;fill-rule:evenodd;stroke:#000000;stroke-width:2.0px;stroke-linecap:butt;stroke-linejoin:miter;stroke-opacity:1"/>
<path class="atom-0" d="M 245.7 159.0 Q 245.7 153.5, 248.5 150.4 Q 251.2 147.3, 256.3 147.3 Q 261.4 147.3, 264.1 150.4 Q 266.8 153.5, 266.8 159.0 Q 266.8 164.5, 264.0 167.7 Q 261.3 170.9, 256.3 170.9 Q 251.2 170.9, 248.5 167.7 Q 245.7 164.6, 245.7 159.0 M 256.3 168.3 Q 259.8 168.3, 261.6 165.9 Q 263.6 163.6, 263.6 159.0 Q 263.6 154.5, 261.6 152.2 Q 259.8 149.9, 256.3 149.9 Q 252.8 149.9, 250.9 152.2 Q 249.0 154.4, 249.0 159.0 Q 249.0 163.6, 250.9 165.9 Q 252.8 168.3, 256.3 168.3 " fill="#FF0000"/>
<path class="atom-0" d="M 268.4 147.6 L 271.5 147.6 L 271.5 157.3 L 283.3 157.3 L 283.3 147.6 L 286.4 147.6 L 286.4 170.5 L 283.3 170.5 L 283.3 159.9 L 271.5 159.9 L 271.5 170.5 L 268.4 170.5 L 268.4 147.6 " fill="#FF0000"/>
<path class="atom-4" d="M 67.9 182.2 Q 67.9 176.5, 70.6 173.6 Q 73.3 170.5, 78.4 170.5 Q 83.1 170.5, 85.6 173.9 L 83.5 175.6 Q 81.6 173.2, 78.4 173.2 Q 74.9 173.2, 73.0 175.5 Q 71.2 177.8, 71.2 182.2 Q 71.2 186.8, 73.1 189.1 Q 75.0 191.4, 78.7 191.4 Q 81.2 191.4, 84.2 189.9 L 85.1 192.4 Q 83.9 193.1, 82.1 193.6 Q 80.3 194.0, 78.3 194.0 Q 73.3 194.0, 70.6 191.0 Q 67.9 187.9, 67.9 182.2 " fill="#000000"/>
<path class="atom-5" d="M 108.0 120.9 Q 108.0 115.2, 110.6 112.2 Q 113.3 109.2, 118.4 109.2 Q 123.1 109.2, 125.7 112.6 L 123.5 114.3 Q 121.7 111.9, 118.4 111.9 Q 114.9 111.9, 113.1 114.2 Q 111.3 116.5, 111.3 120.9 Q 111.3 125.5, 113.2 127.8 Q 115.1 130.1, 118.8 130.1 Q 121.3 130.1, 124.2 128.6 L 125.1 131.0 Q 123.9 131.8, 122.1 132.3 Q 120.3 132.7, 118.3 132.7 Q 113.3 132.7, 110.6 129.7 Q 108.0 126.6, 108.0 120.9 " fill="#000000"/>
</svg>