<svg baseProfile="full" height="300px" version="1.1" viewBox="0 0 300 300" width="300px" xml:space="preserve" xmlns="http://www.w3.org/2000/svg" xmlns:rdkit="http://www.rdkit.org/xml" xmlns:xlink="http://www.w3.org/1999/xlink">
<!-- END OF HEADER -->
<rect height="300.0" style="opacity:1.0;fill:#FFFFFF;stroke:none" width="300.0" x="0.0" y="0.0"> </rect>
<path class="bond-0 atom-0 atom-1" d="M 13.6,146.0 L 104.5,148.0" style="fill:none;fill-rule:evenodd;stroke:#000000;stroke-width:2.0px;stroke-linecap:butt;stroke-linejoin:miter;stroke-opacity:1"/>
<path class="bond-1 atom-1 atom-2" d="M 104.5,148.0 L 148.3,227.7" style="fill:none;fill-rule:evenodd;stroke:#000000;stroke-width:2.0px;stroke-linecap:butt;stroke-linejoin:miter;stroke-opacity:1"/>
<path class="bond-2 atom-2 atom-3" d="M 148.3,227.7 L 239.2,229.7" style="fill:none;fill-rule:evenodd;stroke:#000000;stroke-width:2.0px;stroke-linecap:butt;stroke-linejoin:miter;stroke-opacity:1"/>
<path class="bond-3 atom-3 atom-4" d="M 239.2,229.7 L 286.4,152.0" style="fill:none;fill-rule:evenodd;stroke:#000000;stroke-width:2.0px;stroke-linecap:butt;stroke-linejoin:miter;stroke-opacity:1"/>
<path class="bond-4 atom-4 atom-5" d="M 286.4,152.0 L 242.6,72.3" style="fill:none;fill-rule:evenodd;stroke:#000000;stroke-width:2.0px;stroke-linecap:butt;stroke-linejoin:miter;stroke-opacity:1"/>
<path class="bond-5 atom-5 atom-6" d="M 242.6,72.3 L 151.7,70.3" style="fill:none;fill-rule:evenodd;stroke:#000000;stroke-width:2.0px;stroke-linecap:butt;stroke-linejoin:miter;stroke-opacity:1"/>
<path class="bond-6 atom-6 atom-7" d="M 151.7,70.3 L 195.5,150.0" style="fill:none;fill-rule:evenodd;stroke:#000000;stroke-width:2.0px;stroke-linecap:butt;stroke-linejoin:miter;stroke-opacity:1"/>
<path class="bond-7 atom-7 atom-8" d="M 195.5,150.0 L 211.7,146.3" style="fill:none;fill-rule:evenodd;stroke:#000000;stroke-width:2.0px;stroke-linecap:butt;stroke-linejoin:miter;stroke-opacity:1"/>
<path class="bond-7 atom-7 atom-8" d="M 211.7,146.3 L 227.9,142.7" style="fill:none;fill-rule:evenodd;stroke:#FF0000;stroke-width:2.0px;stroke-linecap:butt;stroke-linejoin:miter;stroke-opacity:1"/>
<path class="bond-8 atom-6 atom-1" d="M 151.7,70.3 L 104.5,148.0" style="fill:none;fill-rule:evenodd;stroke:#000000;stroke-width:2.0px;stroke-linecap:butt;stroke-linejoin:miter;stroke-opacity:1"/>
<path class="bond-9 atom-7 atom-2" d="M 195.5,150.0 L 148.3,227.7" style="fill:none;fill-rule:evenodd;stroke:#000000;stroke-width:2.0px;stroke-linecap:butt;stroke-linejoin:miter;stroke-opacity:1"/>
<path class="atom-8" d="M 230.8 139.4 Q 230.8 133.2, 233.8 129.8 Q 236.9 126.3, 242.6 126.3 Q 248.3 126.3, 251.4 129.8 Q 254.4 133.2, 254.4 139.4 Q 254.4 145.7, 251.3 149.2 Q 248.2 152.8, 242.6 152.8 Q 236.9 152.8, 233.8 149.2 Q 230.8 145.7, 230.8 139.4 M 242.6 149.8 Q 246.5 149.8, 248.6 147.2 Q 250.8 144.6, 250.8 139.4 Q 250.8 134.4, 248.6 131.8 Q 246.5 129.2, 242.6 129.2 Q 238.7 129.2, 236.5 131.8 Q 234.4 134.3, 234.4 139.4 Q 234.4 144.6, 236.5 147.2 Q 238.7 149.8, 242.6 149.8 " fill="#FF0000"/>
<path class="atom-8" d="M 256.2 126.6 L 259.7 126.6 L 259.7 137.6 L 272.9 137.6 L 272.9 126.6 L 276.4 126.6 L 276.4 152.4 L 272.9 152.4 L 272.9 140.5 L 259.7 140.5 L 259.7 152.4 L 256.2 152.4 L 256.2 126.6 " fill="#FF0000"/>
</svg>