<svg baseProfile="full" height="300px" version="1.1" viewBox="0 0 300 300" width="300px" xml:space="preserve" xmlns="http://www.w3.org/2000/svg" xmlns:rdkit="http://www.rdkit.org/xml" xmlns:xlink="http://www.w3.org/1999/xlink">
<!-- END OF HEADER -->
<rect height="300.0" style="opacity:1.0;fill:#FFFFFF;stroke:none" width="300.0" x="0.0" y="0.0"> </rect>
<path class="bond-0 atom-0 atom-1" d="M 235.9,60.8 L 201.3,111.4" style="fill:none;fill-rule:evenodd;stroke:#000000;stroke-width:2.0px;stroke-linecap:butt;stroke-linejoin:miter;stroke-opacity:1"/>
<path class="bond-1 atom-1 atom-2" d="M 201.3,111.4 L 140.2,106.7" style="fill:none;fill-rule:evenodd;stroke:#000000;stroke-width:2.0px;stroke-linecap:butt;stroke-linejoin:miter;stroke-opacity:1"/>
<path class="bond-1 atom-1 atom-2" d="M 193.1,98.5 L 150.3,95.2" style="fill:none;fill-rule:evenodd;stroke:#000000;stroke-width:2.0px;stroke-linecap:butt;stroke-linejoin:miter;stroke-opacity:1"/>
<path class="bond-2 atom-2 atom-3" d="M 140.2,106.7 L 126.6,126.7" style="fill:none;fill-rule:evenodd;stroke:#000000;stroke-width:2.0px;stroke-linecap:butt;stroke-linejoin:miter;stroke-opacity:1"/>
<path class="bond-2 atom-2 atom-3" d="M 126.6,126.7 L 113.0,146.6" style="fill:none;fill-rule:evenodd;stroke:#0000FF;stroke-width:2.0px;stroke-linecap:butt;stroke-linejoin:miter;stroke-opacity:1"/>
<path class="bond-3 atom-3 atom-4" d="M 97.1,156.7 L 53.2,153.3" style="fill:none;fill-rule:evenodd;stroke:#0000FF;stroke-width:2.0px;stroke-linecap:butt;stroke-linejoin:miter;stroke-opacity:1"/>
<path class="bond-4 atom-1 atom-5" d="M 201.3,111.4 L 227.8,166.6" style="fill:none;fill-rule:evenodd;stroke:#000000;stroke-width:2.0px;stroke-linecap:butt;stroke-linejoin:miter;stroke-opacity:1"/>
<path class="bond-5 atom-5 atom-6" d="M 227.8,166.6 L 283.1,140.1" style="fill:none;fill-rule:evenodd;stroke:#000000;stroke-width:2.0px;stroke-linecap:butt;stroke-linejoin:miter;stroke-opacity:1"/>
<path class="bond-6 atom-5 atom-7" d="M 227.8,166.6 L 172.6,193.1" style="fill:none;fill-rule:evenodd;stroke:#000000;stroke-width:2.0px;stroke-linecap:butt;stroke-linejoin:miter;stroke-opacity:1"/>
<path class="bond-7 atom-5 atom-8" d="M 227.8,166.6 L 238.5,188.9" style="fill:none;fill-rule:evenodd;stroke:#000000;stroke-width:2.0px;stroke-linecap:butt;stroke-linejoin:miter;stroke-opacity:1"/>
<path class="bond-7 atom-5 atom-8" d="M 238.5,188.9 L 249.2,211.2" style="fill:none;fill-rule:evenodd;stroke:#0000FF;stroke-width:2.0px;stroke-linecap:butt;stroke-linejoin:miter;stroke-opacity:1"/>
<path class="atom-3" d="M 101.8 148.7 L 107.5 157.8 Q 108.1 158.8, 109.0 160.4 Q 109.9 162.0, 109.9 162.1 L 109.9 148.7 L 112.2 148.7 L 112.2 166.0 L 109.9 166.0 L 103.8 156.0 Q 103.0 154.8, 102.3 153.4 Q 101.6 152.1, 101.3 151.7 L 101.3 166.0 L 99.1 166.0 L 99.1 148.7 L 101.8 148.7 " fill="#0000FF"/>
<path class="atom-3" d="M 114.3 148.7 L 116.6 148.7 L 116.6 156.0 L 125.5 156.0 L 125.5 148.7 L 127.8 148.7 L 127.8 166.0 L 125.5 166.0 L 125.5 158.0 L 116.6 158.0 L 116.6 166.0 L 114.3 166.0 L 114.3 148.7 " fill="#0000FF"/>
<path class="atom-4" d="M 13.6 144.0 L 16.0 144.0 L 16.0 151.4 L 24.9 151.4 L 24.9 144.0 L 27.2 144.0 L 27.2 161.4 L 24.9 161.4 L 24.9 153.4 L 16.0 153.4 L 16.0 161.4 L 13.6 161.4 L 13.6 144.0 " fill="#0000FF"/>
<path class="atom-4" d="M 29.3 160.8 Q 29.7 159.7, 30.8 159.1 Q 31.8 158.5, 33.1 158.5 Q 34.9 158.5, 35.8 159.4 Q 36.8 160.3, 36.8 162.0 Q 36.8 163.7, 35.6 165.3 Q 34.3 166.9, 31.7 168.8 L 37.0 168.8 L 37.0 170.0 L 29.3 170.0 L 29.3 169.0 Q 31.4 167.4, 32.7 166.3 Q 34.0 165.2, 34.6 164.2 Q 35.2 163.1, 35.2 162.1 Q 35.2 161.0, 34.7 160.4 Q 34.1 159.8, 33.1 159.8 Q 32.2 159.8, 31.6 160.1 Q 31.0 160.5, 30.6 161.3 L 29.3 160.8 " fill="#0000FF"/>
<path class="atom-4" d="M 40.7 144.0 L 46.4 153.2 Q 47.0 154.1, 47.9 155.8 Q 48.8 157.4, 48.8 157.5 L 48.8 144.0 L 51.1 144.0 L 51.1 161.4 L 48.8 161.4 L 42.7 151.3 Q 42.0 150.1, 41.2 148.8 Q 40.5 147.4, 40.2 147.0 L 40.2 161.4 L 38.0 161.4 L 38.0 144.0 L 40.7 144.0 " fill="#0000FF"/>
<path class="atom-8" d="M 250.5 213.2 L 256.2 222.4 Q 256.8 223.3, 257.7 224.9 Q 258.6 226.6, 258.6 226.7 L 258.6 213.2 L 261.0 213.2 L 261.0 230.5 L 258.6 230.5 L 252.5 220.5 Q 251.8 219.3, 251.0 218.0 Q 250.3 216.6, 250.0 216.2 L 250.0 230.5 L 247.8 230.5 L 247.8 213.2 L 250.5 213.2 " fill="#0000FF"/>
<path class="atom-8" d="M 263.0 213.2 L 265.3 213.2 L 265.3 220.5 L 274.2 220.5 L 274.2 213.2 L 276.6 213.2 L 276.6 230.5 L 274.2 230.5 L 274.2 222.5 L 265.3 222.5 L 265.3 230.5 L 263.0 230.5 L 263.0 213.2 " fill="#0000FF"/>
<path class="atom-8" d="M 278.7 229.9 Q 279.1 228.8, 280.1 228.2 Q 281.1 227.6, 282.5 227.6 Q 284.2 227.6, 285.2 228.6 Q 286.2 229.5, 286.2 231.2 Q 286.2 232.9, 284.9 234.4 Q 283.7 236.0, 281.1 237.9 L 286.4 237.9 L 286.4 239.2 L 278.6 239.2 L 278.6 238.1 Q 280.8 236.6, 282.0 235.5 Q 283.3 234.3, 283.9 233.3 Q 284.6 232.3, 284.6 231.2 Q 284.6 230.1, 284.0 229.5 Q 283.5 228.9, 282.5 228.9 Q 281.6 228.9, 281.0 229.3 Q 280.3 229.7, 279.9 230.5 L 278.7 229.9 " fill="#0000FF"/>
</svg>