<svg baseProfile="full" height="300px" version="1.1" viewBox="0 0 300 300" width="300px" xml:space="preserve" xmlns="http://www.w3.org/2000/svg" xmlns:rdkit="http://www.rdkit.org/xml" xmlns:xlink="http://www.w3.org/1999/xlink">
<!-- END OF HEADER -->
<rect height="300.0" style="opacity:1.0;fill:#FFFFFF;stroke:none" width="300.0" x="0.0" y="0.0"> </rect>
<path class="bond-0 atom-0 atom-1" d="M 150.6,70.2 L 202.0,105.4" style="fill:none;fill-rule:evenodd;stroke:#000000;stroke-width:2.0px;stroke-linecap:butt;stroke-linejoin:miter;stroke-opacity:1"/>
<path class="bond-1 atom-1 atom-2" d="M 202.0,105.4 L 197.3,167.6" style="fill:none;fill-rule:evenodd;stroke:#000000;stroke-width:2.0px;stroke-linecap:butt;stroke-linejoin:miter;stroke-opacity:1"/>
<path class="bond-2 atom-2 atom-3" d="M 197.3,167.6 L 192.5,229.8" style="fill:none;fill-rule:evenodd;stroke:#000000;stroke-width:2.0px;stroke-linecap:butt;stroke-linejoin:miter;stroke-opacity:1"/>
<path class="bond-3 atom-2 atom-4" d="M 197.3,167.6 L 135.1,162.8" style="fill:none;fill-rule:evenodd;stroke:#000000;stroke-width:2.0px;stroke-linecap:butt;stroke-linejoin:miter;stroke-opacity:1"/>
<path class="bond-4 atom-4 atom-5" d="M 135.1,162.8 L 99.9,214.3" style="fill:none;fill-rule:evenodd;stroke:#000000;stroke-width:2.0px;stroke-linecap:butt;stroke-linejoin:miter;stroke-opacity:1"/>
<path class="bond-5 atom-5 atom-6" d="M 99.9,214.3 L 73.8,212.3" style="fill:none;fill-rule:evenodd;stroke:#000000;stroke-width:2.0px;stroke-linecap:butt;stroke-linejoin:miter;stroke-opacity:1"/>
<path class="bond-5 atom-5 atom-6" d="M 73.8,212.3 L 47.8,210.3" style="fill:none;fill-rule:evenodd;stroke:#FF0000;stroke-width:2.0px;stroke-linecap:butt;stroke-linejoin:miter;stroke-opacity:1"/>
<path class="bond-6 atom-2 atom-7" d="M 197.3,167.6 L 224.0,169.7" style="fill:none;fill-rule:evenodd;stroke:#000000;stroke-width:2.0px;stroke-linecap:butt;stroke-linejoin:miter;stroke-opacity:1"/>
<path class="bond-6 atom-2 atom-7" d="M 224.0,169.7 L 250.7,171.7" style="fill:none;fill-rule:evenodd;stroke:#0000FF;stroke-width:2.0px;stroke-linecap:butt;stroke-linejoin:miter;stroke-opacity:1"/>
<path class="bond-7 atom-7 atom-8" d="M 264.6,183.3 L 275.5,206.0" style="fill:none;fill-rule:evenodd;stroke:#0000FF;stroke-width:2.0px;stroke-linecap:butt;stroke-linejoin:miter;stroke-opacity:1"/>
<path class="bond-7 atom-7 atom-8" d="M 275.5,206.0 L 286.4,228.6" style="fill:none;fill-rule:evenodd;stroke:#000000;stroke-width:2.0px;stroke-linecap:butt;stroke-linejoin:miter;stroke-opacity:1"/>
<path class="atom-6" d="M 13.6 200.8 L 16.0 200.8 L 16.0 208.3 L 25.1 208.3 L 25.1 200.8 L 27.5 200.8 L 27.5 218.4 L 25.1 218.4 L 25.1 210.3 L 16.0 210.3 L 16.0 218.4 L 13.6 218.4 L 13.6 200.8 " fill="#FF0000"/>
<path class="atom-6" d="M 29.6 209.5 Q 29.6 205.3, 31.7 202.9 Q 33.8 200.6, 37.7 200.6 Q 41.6 200.6, 43.7 202.9 Q 45.8 205.3, 45.8 209.5 Q 45.8 213.8, 43.7 216.3 Q 41.5 218.7, 37.7 218.7 Q 33.8 218.7, 31.7 216.3 Q 29.6 213.8, 29.6 209.5 M 37.7 216.7 Q 40.4 216.7, 41.8 214.9 Q 43.3 213.1, 43.3 209.5 Q 43.3 206.1, 41.8 204.3 Q 40.4 202.5, 37.7 202.5 Q 35.0 202.5, 33.5 204.3 Q 32.1 206.0, 32.1 209.5 Q 32.1 213.1, 33.5 214.9 Q 35.0 216.7, 37.7 216.7 " fill="#FF0000"/>
<path class="atom-7" d="M 255.5 163.6 L 261.3 172.9 Q 261.9 173.9, 262.8 175.5 Q 263.7 177.2, 263.8 177.3 L 263.8 163.6 L 266.1 163.6 L 266.1 181.2 L 263.7 181.2 L 257.5 171.0 Q 256.8 169.8, 256.0 168.4 Q 255.2 167.1, 255.0 166.6 L 255.0 181.2 L 252.7 181.2 L 252.7 163.6 L 255.5 163.6 " fill="#0000FF"/>
<path class="atom-7" d="M 268.2 163.6 L 270.6 163.6 L 270.6 171.1 L 279.6 171.1 L 279.6 163.6 L 282.0 163.6 L 282.0 181.2 L 279.6 181.2 L 279.6 173.1 L 270.6 173.1 L 270.6 181.2 L 268.2 181.2 L 268.2 163.6 " fill="#0000FF"/>
</svg>