<svg baseProfile="full" height="300px" version="1.1" viewBox="0 0 300 300" width="300px" xml:space="preserve" xmlns="http://www.w3.org/2000/svg" xmlns:rdkit="http://www.rdkit.org/xml" xmlns:xlink="http://www.w3.org/1999/xlink">
<!-- END OF HEADER -->
<rect height="300.0" style="opacity:1.0;fill:#FFFFFF;stroke:none" width="300.0" x="0.0" y="0.0"> </rect>
<path class="bond-0 atom-0 atom-1" d="M 13.6,220.7 L 41.6,174.7" style="fill:none;fill-rule:evenodd;stroke:#000000;stroke-width:2.0px;stroke-linecap:butt;stroke-linejoin:miter;stroke-opacity:1"/>
<path class="bond-1 atom-1 atom-2" d="M 41.6,174.7 L 95.4,176.0" style="fill:none;fill-rule:evenodd;stroke:#000000;stroke-width:2.0px;stroke-linecap:butt;stroke-linejoin:miter;stroke-opacity:1"/>
<path class="bond-2 atom-2 atom-3" d="M 95.4,176.0 L 123.4,130.0" style="fill:none;fill-rule:evenodd;stroke:#000000;stroke-width:2.0px;stroke-linecap:butt;stroke-linejoin:miter;stroke-opacity:1"/>
<path class="bond-3 atom-3 atom-4" d="M 123.4,130.0 L 110.7,77.7" style="fill:none;fill-rule:evenodd;stroke:#000000;stroke-width:2.0px;stroke-linecap:butt;stroke-linejoin:miter;stroke-opacity:1"/>
<path class="bond-4 atom-4 atom-5" d="M 110.7,77.7 L 163.0,65.0" style="fill:none;fill-rule:evenodd;stroke:#000000;stroke-width:2.0px;stroke-linecap:butt;stroke-linejoin:miter;stroke-opacity:1"/>
<path class="bond-5 atom-5 atom-6" d="M 163.0,65.0 L 175.7,117.3" style="fill:none;fill-rule:evenodd;stroke:#000000;stroke-width:2.0px;stroke-linecap:butt;stroke-linejoin:miter;stroke-opacity:1"/>
<path class="bond-6 atom-6 atom-7" d="M 175.7,117.3 L 221.6,145.3" style="fill:none;fill-rule:evenodd;stroke:#000000;stroke-width:2.0px;stroke-linecap:butt;stroke-linejoin:miter;stroke-opacity:1"/>
<path class="bond-7 atom-7 atom-8" d="M 221.6,145.3 L 220.4,199.1" style="fill:none;fill-rule:evenodd;stroke:#000000;stroke-width:2.0px;stroke-linecap:butt;stroke-linejoin:miter;stroke-opacity:1"/>
<path class="bond-8 atom-8 atom-9" d="M 220.4,199.1 L 239.0,210.4" style="fill:none;fill-rule:evenodd;stroke:#000000;stroke-width:2.0px;stroke-linecap:butt;stroke-linejoin:miter;stroke-opacity:1"/>
<path class="bond-8 atom-8 atom-9" d="M 239.0,210.4 L 257.6,221.7" style="fill:none;fill-rule:evenodd;stroke:#FF0000;stroke-width:2.0px;stroke-linecap:butt;stroke-linejoin:miter;stroke-opacity:1"/>
<path class="bond-9 atom-6 atom-3" d="M 175.7,117.3 L 123.4,130.0" style="fill:none;fill-rule:evenodd;stroke:#000000;stroke-width:2.0px;stroke-linecap:butt;stroke-linejoin:miter;stroke-opacity:1"/>
<path class="atom-9" d="M 259.4 227.1 Q 259.4 223.4, 261.2 221.4 Q 263.0 219.3, 266.4 219.3 Q 269.7 219.3, 271.6 221.4 Q 273.4 223.4, 273.4 227.1 Q 273.4 230.8, 271.5 232.9 Q 269.7 235.0, 266.4 235.0 Q 263.0 235.0, 261.2 232.9 Q 259.4 230.8, 259.4 227.1 M 266.4 233.3 Q 268.7 233.3, 269.9 231.7 Q 271.2 230.2, 271.2 227.1 Q 271.2 224.1, 269.9 222.6 Q 268.7 221.1, 266.4 221.1 Q 264.0 221.1, 262.8 222.6 Q 261.5 224.1, 261.5 227.1 Q 261.5 230.2, 262.8 231.7 Q 264.0 233.3, 266.4 233.3 " fill="#FF0000"/>
<path class="atom-9" d="M 274.4 219.5 L 276.5 219.5 L 276.5 226.0 L 284.3 226.0 L 284.3 219.5 L 286.4 219.5 L 286.4 234.8 L 284.3 234.8 L 284.3 227.7 L 276.5 227.7 L 276.5 234.8 L 274.4 234.8 L 274.4 219.5 " fill="#FF0000"/>
</svg>