<svg baseProfile="full" height="300px" version="1.1" viewBox="0 0 300 300" width="300px" xml:space="preserve" xmlns="http://www.w3.org/2000/svg" xmlns:rdkit="http://www.rdkit.org/xml" xmlns:xlink="http://www.w3.org/1999/xlink">
<!-- END OF HEADER -->
<rect height="300.0" style="opacity:1.0;fill:#FFFFFF;stroke:none" width="300.0" x="0.0" y="0.0"> </rect>
<path class="bond-0 atom-0 atom-1" d="M 13.6,176.2 L 33.4,170.0" style="fill:none;fill-rule:evenodd;stroke:#000000;stroke-width:2.0px;stroke-linecap:butt;stroke-linejoin:miter;stroke-opacity:1"/>
<path class="bond-0 atom-0 atom-1" d="M 33.4,170.0 L 53.3,163.7" style="fill:none;fill-rule:evenodd;stroke:#FF0000;stroke-width:2.0px;stroke-linecap:butt;stroke-linejoin:miter;stroke-opacity:1"/>
<path class="bond-1 atom-1 atom-2" d="M 69.6,168.6 L 84.0,181.8" style="fill:none;fill-rule:evenodd;stroke:#FF0000;stroke-width:2.0px;stroke-linecap:butt;stroke-linejoin:miter;stroke-opacity:1"/>
<path class="bond-1 atom-1 atom-2" d="M 84.0,181.8 L 98.3,195.0" style="fill:none;fill-rule:evenodd;stroke:#000000;stroke-width:2.0px;stroke-linecap:butt;stroke-linejoin:miter;stroke-opacity:1"/>
<path class="bond-2 atom-2 atom-3" d="M 98.3,195.0 L 146.1,180.0" style="fill:none;fill-rule:evenodd;stroke:#000000;stroke-width:2.0px;stroke-linecap:butt;stroke-linejoin:miter;stroke-opacity:1"/>
<path class="bond-3 atom-3 atom-4" d="M 146.1,180.0 L 183.0,213.8" style="fill:none;fill-rule:evenodd;stroke:#000000;stroke-width:2.0px;stroke-linecap:butt;stroke-linejoin:miter;stroke-opacity:1"/>
<path class="bond-4 atom-4 atom-5" d="M 183.0,213.8 L 230.8,198.8" style="fill:none;fill-rule:evenodd;stroke:#000000;stroke-width:2.0px;stroke-linecap:butt;stroke-linejoin:miter;stroke-opacity:1"/>
<path class="bond-5 atom-5 atom-6" d="M 230.8,198.8 L 245.2,212.0" style="fill:none;fill-rule:evenodd;stroke:#000000;stroke-width:2.0px;stroke-linecap:butt;stroke-linejoin:miter;stroke-opacity:1"/>
<path class="bond-5 atom-5 atom-6" d="M 245.2,212.0 L 259.6,225.2" style="fill:none;fill-rule:evenodd;stroke:#FF0000;stroke-width:2.0px;stroke-linecap:butt;stroke-linejoin:miter;stroke-opacity:1"/>
<path class="bond-6 atom-3 atom-7" d="M 146.1,180.0 L 157.0,131.1" style="fill:none;fill-rule:evenodd;stroke:#000000;stroke-width:2.0px;stroke-linecap:butt;stroke-linejoin:miter;stroke-opacity:1"/>
<path class="bond-7 atom-7 atom-8" d="M 157.0,131.1 L 204.8,116.0" style="fill:none;fill-rule:evenodd;stroke:#000000;stroke-width:2.0px;stroke-linecap:butt;stroke-linejoin:miter;stroke-opacity:1"/>
<path class="bond-8 atom-8 atom-9" d="M 204.8,116.0 L 209.2,96.1" style="fill:none;fill-rule:evenodd;stroke:#000000;stroke-width:2.0px;stroke-linecap:butt;stroke-linejoin:miter;stroke-opacity:1"/>
<path class="bond-8 atom-8 atom-9" d="M 209.2,96.1 L 213.6,76.2" style="fill:none;fill-rule:evenodd;stroke:#FF0000;stroke-width:2.0px;stroke-linecap:butt;stroke-linejoin:miter;stroke-opacity:1"/>
<path class="atom-1" d="M 54.9 161.2 Q 54.9 157.8, 56.6 155.9 Q 58.3 154.0, 61.4 154.0 Q 64.6 154.0, 66.2 155.9 Q 67.9 157.8, 67.9 161.2 Q 67.9 164.6, 66.2 166.6 Q 64.5 168.6, 61.4 168.6 Q 58.3 168.6, 56.6 166.6 Q 54.9 164.7, 54.9 161.2 M 61.4 166.9 Q 63.6 166.9, 64.7 165.5 Q 65.9 164.0, 65.9 161.2 Q 65.9 158.4, 64.7 157.0 Q 63.6 155.6, 61.4 155.6 Q 59.3 155.6, 58.1 157.0 Q 56.9 158.4, 56.9 161.2 Q 56.9 164.1, 58.1 165.5 Q 59.3 166.9, 61.4 166.9 " fill="#FF0000"/>
<path class="atom-6" d="M 261.2 232.7 Q 261.2 229.3, 262.9 227.4 Q 264.6 225.5, 267.7 225.5 Q 270.9 225.5, 272.6 227.4 Q 274.3 229.3, 274.3 232.7 Q 274.3 236.1, 272.6 238.1 Q 270.9 240.0, 267.7 240.0 Q 264.6 240.0, 262.9 238.1 Q 261.2 236.2, 261.2 232.7 M 267.7 238.4 Q 269.9 238.4, 271.1 237.0 Q 272.3 235.5, 272.3 232.7 Q 272.3 229.9, 271.1 228.5 Q 269.9 227.1, 267.7 227.1 Q 265.6 227.1, 264.4 228.5 Q 263.2 229.9, 263.2 232.7 Q 263.2 235.6, 264.4 237.0 Q 265.6 238.4, 267.7 238.4 " fill="#FF0000"/>
<path class="atom-6" d="M 275.3 225.6 L 277.2 225.6 L 277.2 231.7 L 284.4 231.7 L 284.4 225.6 L 286.4 225.6 L 286.4 239.8 L 284.4 239.8 L 284.4 233.3 L 277.2 233.3 L 277.2 239.8 L 275.3 239.8 L 275.3 225.6 " fill="#FF0000"/>
<path class="atom-9" d="M 209.1 67.2 Q 209.1 63.8, 210.8 61.9 Q 212.5 60.0, 215.6 60.0 Q 218.8 60.0, 220.5 61.9 Q 222.1 63.8, 222.1 67.2 Q 222.1 70.6, 220.4 72.6 Q 218.7 74.5, 215.6 74.5 Q 212.5 74.5, 210.8 72.6 Q 209.1 70.6, 209.1 67.2 M 215.6 72.9 Q 217.8 72.9, 219.0 71.5 Q 220.1 70.0, 220.1 67.2 Q 220.1 64.4, 219.0 63.0 Q 217.8 61.6, 215.6 61.6 Q 213.5 61.6, 212.3 63.0 Q 211.1 64.4, 211.1 67.2 Q 211.1 70.0, 212.3 71.5 Q 213.5 72.9, 215.6 72.9 " fill="#FF0000"/>
<path class="atom-9" d="M 223.2 60.1 L 225.1 60.1 L 225.1 66.1 L 232.3 66.1 L 232.3 60.1 L 234.3 60.1 L 234.3 74.3 L 232.3 74.3 L 232.3 67.7 L 225.1 67.7 L 225.1 74.3 L 223.2 74.3 L 223.2 60.1 " fill="#FF0000"/>
</svg>