<svg baseProfile="full" height="300px" version="1.1" viewBox="0 0 300 300" width="300px" xml:space="preserve" xmlns="http://www.w3.org/2000/svg" xmlns:rdkit="http://www.rdkit.org/xml" xmlns:xlink="http://www.w3.org/1999/xlink">
<!-- END OF HEADER -->
<rect height="300.0" style="opacity:1.0;fill:#FFFFFF;stroke:none" width="300.0" x="0.0" y="0.0"> </rect>
<path class="bond-0 atom-0 atom-1" d="M 13.6,172.6 L 61.4,157.6" style="fill:none;fill-rule:evenodd;stroke:#000000;stroke-width:2.0px;stroke-linecap:butt;stroke-linejoin:miter;stroke-opacity:1"/>
<path class="bond-1 atom-1 atom-2" d="M 61.4,157.6 L 98.3,191.4" style="fill:none;fill-rule:evenodd;stroke:#000000;stroke-width:2.0px;stroke-linecap:butt;stroke-linejoin:miter;stroke-opacity:1"/>
<path class="bond-2 atom-2 atom-3" d="M 98.3,191.4 L 146.1,176.4" style="fill:none;fill-rule:evenodd;stroke:#000000;stroke-width:2.0px;stroke-linecap:butt;stroke-linejoin:miter;stroke-opacity:1"/>
<path class="bond-3 atom-3 atom-4" d="M 146.1,176.4 L 183.0,210.2" style="fill:none;fill-rule:evenodd;stroke:#000000;stroke-width:2.0px;stroke-linecap:butt;stroke-linejoin:miter;stroke-opacity:1"/>
<path class="bond-4 atom-4 atom-5" d="M 183.0,210.2 L 230.8,195.2" style="fill:none;fill-rule:evenodd;stroke:#000000;stroke-width:2.0px;stroke-linecap:butt;stroke-linejoin:miter;stroke-opacity:1"/>
<path class="bond-5 atom-5 atom-6" d="M 230.8,195.2 L 245.2,208.4" style="fill:none;fill-rule:evenodd;stroke:#000000;stroke-width:2.0px;stroke-linecap:butt;stroke-linejoin:miter;stroke-opacity:1"/>
<path class="bond-5 atom-5 atom-6" d="M 245.2,208.4 L 259.6,221.6" style="fill:none;fill-rule:evenodd;stroke:#FF0000;stroke-width:2.0px;stroke-linecap:butt;stroke-linejoin:miter;stroke-opacity:1"/>
<path class="bond-6 atom-3 atom-7" d="M 146.1,176.4 L 157.0,127.5" style="fill:none;fill-rule:evenodd;stroke:#000000;stroke-width:2.0px;stroke-linecap:butt;stroke-linejoin:miter;stroke-opacity:1"/>
<path class="bond-7 atom-7 atom-8" d="M 157.0,127.5 L 176.8,121.2" style="fill:none;fill-rule:evenodd;stroke:#000000;stroke-width:2.0px;stroke-linecap:butt;stroke-linejoin:miter;stroke-opacity:1"/>
<path class="bond-7 atom-7 atom-8" d="M 176.8,121.2 L 196.6,115.0" style="fill:none;fill-rule:evenodd;stroke:#FF0000;stroke-width:2.0px;stroke-linecap:butt;stroke-linejoin:miter;stroke-opacity:1"/>
<path class="bond-8 atom-8 atom-9" d="M 206.7,103.6 L 211.2,83.6" style="fill:none;fill-rule:evenodd;stroke:#FF0000;stroke-width:2.0px;stroke-linecap:butt;stroke-linejoin:miter;stroke-opacity:1"/>
<path class="bond-8 atom-8 atom-9" d="M 211.2,83.6 L 215.6,63.5" style="fill:none;fill-rule:evenodd;stroke:#000000;stroke-width:2.0px;stroke-linecap:butt;stroke-linejoin:miter;stroke-opacity:1"/>
<path class="atom-6" d="M 261.2 229.1 Q 261.2 225.7, 262.9 223.8 Q 264.6 221.9, 267.7 221.9 Q 270.9 221.9, 272.6 223.8 Q 274.3 225.7, 274.3 229.1 Q 274.3 232.6, 272.6 234.5 Q 270.9 236.5, 267.7 236.5 Q 264.6 236.5, 262.9 234.5 Q 261.2 232.6, 261.2 229.1 M 267.7 234.9 Q 269.9 234.9, 271.1 233.4 Q 272.3 232.0, 272.3 229.1 Q 272.3 226.3, 271.1 224.9 Q 269.9 223.5, 267.7 223.5 Q 265.6 223.5, 264.4 224.9 Q 263.2 226.3, 263.2 229.1 Q 263.2 232.0, 264.4 233.4 Q 265.6 234.9, 267.7 234.9 " fill="#FF0000"/>
<path class="atom-6" d="M 275.3 222.1 L 277.2 222.1 L 277.2 228.1 L 284.4 228.1 L 284.4 222.1 L 286.4 222.1 L 286.4 236.2 L 284.4 236.2 L 284.4 229.7 L 277.2 229.7 L 277.2 236.2 L 275.3 236.2 L 275.3 222.1 " fill="#FF0000"/>
<path class="atom-8" d="M 198.3 112.5 Q 198.3 109.1, 199.9 107.2 Q 201.6 105.3, 204.8 105.3 Q 207.9 105.3, 209.6 107.2 Q 211.3 109.1, 211.3 112.5 Q 211.3 115.9, 209.6 117.9 Q 207.9 119.8, 204.8 119.8 Q 201.6 119.8, 199.9 117.9 Q 198.3 115.9, 198.3 112.5 M 204.8 118.2 Q 206.9 118.2, 208.1 116.8 Q 209.3 115.3, 209.3 112.5 Q 209.3 109.7, 208.1 108.3 Q 206.9 106.9, 204.8 106.9 Q 202.6 106.9, 201.4 108.3 Q 200.3 109.7, 200.3 112.5 Q 200.3 115.3, 201.4 116.8 Q 202.6 118.2, 204.8 118.2 " fill="#FF0000"/>
</svg>