<svg baseProfile="full" height="300px" version="1.1" viewBox="0 0 300 300" width="300px" xml:space="preserve" xmlns="http://www.w3.org/2000/svg" xmlns:rdkit="http://www.rdkit.org/xml" xmlns:xlink="http://www.w3.org/1999/xlink">
<!-- END OF HEADER -->
<rect height="300.0" style="opacity:1.0;fill:#FFFFFF;stroke:none" width="300.0" x="0.0" y="0.0"> </rect>
<path class="bond-0 atom-0 atom-1" d="M 286.4,144.8 L 253.5,176.0" style="fill:none;fill-rule:evenodd;stroke:#000000;stroke-width:2.0px;stroke-linecap:butt;stroke-linejoin:miter;stroke-opacity:1"/>
<path class="bond-1 atom-1 atom-2" d="M 253.5,176.0 L 210.0,163.2" style="fill:none;fill-rule:evenodd;stroke:#000000;stroke-width:2.0px;stroke-linecap:butt;stroke-linejoin:miter;stroke-opacity:1"/>
<path class="bond-2 atom-2 atom-3" d="M 210.0,163.2 L 205.6,145.1" style="fill:none;fill-rule:evenodd;stroke:#000000;stroke-width:2.0px;stroke-linecap:butt;stroke-linejoin:miter;stroke-opacity:1"/>
<path class="bond-2 atom-2 atom-3" d="M 205.6,145.1 L 201.2,127.0" style="fill:none;fill-rule:evenodd;stroke:#0000FF;stroke-width:2.0px;stroke-linecap:butt;stroke-linejoin:miter;stroke-opacity:1"/>
<path class="bond-3 atom-2 atom-4" d="M 210.0,163.2 L 177.1,194.5" style="fill:none;fill-rule:evenodd;stroke:#000000;stroke-width:2.0px;stroke-linecap:butt;stroke-linejoin:miter;stroke-opacity:1"/>
<path class="bond-4 atom-4 atom-5" d="M 177.1,194.5 L 133.6,181.7" style="fill:none;fill-rule:evenodd;stroke:#000000;stroke-width:2.0px;stroke-linecap:butt;stroke-linejoin:miter;stroke-opacity:1"/>
<path class="bond-5 atom-5 atom-6" d="M 133.6,181.7 L 90.0,168.9" style="fill:none;fill-rule:evenodd;stroke:#000000;stroke-width:2.0px;stroke-linecap:butt;stroke-linejoin:miter;stroke-opacity:1"/>
<path class="bond-5 atom-5 atom-6" d="M 124.5,188.5 L 94.0,179.5" style="fill:none;fill-rule:evenodd;stroke:#000000;stroke-width:2.0px;stroke-linecap:butt;stroke-linejoin:miter;stroke-opacity:1"/>
<path class="bond-5 atom-5 atom-6" d="M 129.6,171.1 L 99.1,162.1" style="fill:none;fill-rule:evenodd;stroke:#000000;stroke-width:2.0px;stroke-linecap:butt;stroke-linejoin:miter;stroke-opacity:1"/>
<path class="bond-6 atom-6 atom-7" d="M 90.0,168.9 L 46.5,156.0" style="fill:none;fill-rule:evenodd;stroke:#000000;stroke-width:2.0px;stroke-linecap:butt;stroke-linejoin:miter;stroke-opacity:1"/>
<path class="bond-7 atom-7 atom-8" d="M 46.5,156.0 L 13.6,187.3" style="fill:none;fill-rule:evenodd;stroke:#000000;stroke-width:2.0px;stroke-linecap:butt;stroke-linejoin:miter;stroke-opacity:1"/>
<path class="bond-8 atom-7 atom-9" d="M 46.5,156.0 L 42.1,137.9" style="fill:none;fill-rule:evenodd;stroke:#000000;stroke-width:2.0px;stroke-linecap:butt;stroke-linejoin:miter;stroke-opacity:1"/>
<path class="bond-8 atom-7 atom-9" d="M 42.1,137.9 L 37.8,119.8" style="fill:none;fill-rule:evenodd;stroke:#0000FF;stroke-width:2.0px;stroke-linecap:butt;stroke-linejoin:miter;stroke-opacity:1"/>
<path class="atom-3" d="M 196.5 112.7 L 200.7 119.5 Q 201.1 120.2, 201.8 121.4 Q 202.4 122.6, 202.5 122.7 L 202.5 112.7 L 204.2 112.7 L 204.2 125.5 L 202.4 125.5 L 197.9 118.1 Q 197.4 117.2, 196.8 116.2 Q 196.3 115.2, 196.1 114.9 L 196.1 125.5 L 194.4 125.5 L 194.4 112.7 L 196.5 112.7 " fill="#0000FF"/>
<path class="atom-3" d="M 205.7 112.7 L 207.4 112.7 L 207.4 118.1 L 214.0 118.1 L 214.0 112.7 L 215.7 112.7 L 215.7 125.5 L 214.0 125.5 L 214.0 119.6 L 207.4 119.6 L 207.4 125.5 L 205.7 125.5 L 205.7 112.7 " fill="#0000FF"/>
<path class="atom-3" d="M 217.3 125.1 Q 217.6 124.3, 218.4 123.8 Q 219.1 123.4, 220.1 123.4 Q 221.4 123.4, 222.1 124.1 Q 222.9 124.8, 222.9 126.0 Q 222.9 127.3, 221.9 128.4 Q 221.0 129.6, 219.1 131.0 L 223.0 131.0 L 223.0 132.0 L 217.3 132.0 L 217.3 131.2 Q 218.9 130.0, 219.8 129.2 Q 220.7 128.4, 221.2 127.6 Q 221.7 126.8, 221.7 126.1 Q 221.7 125.3, 221.3 124.8 Q 220.8 124.3, 220.1 124.3 Q 219.5 124.3, 219.0 124.6 Q 218.5 124.9, 218.2 125.5 L 217.3 125.1 " fill="#0000FF"/>
<path class="atom-9" d="M 33.0 105.5 L 37.2 112.3 Q 37.6 113.0, 38.3 114.2 Q 39.0 115.4, 39.0 115.5 L 39.0 105.5 L 40.7 105.5 L 40.7 118.3 L 39.0 118.3 L 34.4 110.9 Q 33.9 110.0, 33.4 109.0 Q 32.8 108.0, 32.6 107.7 L 32.6 118.3 L 31.0 118.3 L 31.0 105.5 L 33.0 105.5 " fill="#0000FF"/>
<path class="atom-9" d="M 42.2 105.5 L 44.0 105.5 L 44.0 111.0 L 50.5 111.0 L 50.5 105.5 L 52.3 105.5 L 52.3 118.3 L 50.5 118.3 L 50.5 112.4 L 44.0 112.4 L 44.0 118.3 L 42.2 118.3 L 42.2 105.5 " fill="#0000FF"/>
<path class="atom-9" d="M 53.9 117.9 Q 54.2 117.1, 54.9 116.6 Q 55.6 116.2, 56.7 116.2 Q 58.0 116.2, 58.7 116.9 Q 59.4 117.6, 59.4 118.8 Q 59.4 120.1, 58.5 121.3 Q 57.5 122.4, 55.6 123.8 L 59.5 123.8 L 59.5 124.8 L 53.8 124.8 L 53.8 124.0 Q 55.4 122.8, 56.3 122.0 Q 57.3 121.2, 57.7 120.4 Q 58.2 119.7, 58.2 118.9 Q 58.2 118.1, 57.8 117.6 Q 57.4 117.2, 56.7 117.2 Q 56.0 117.2, 55.5 117.4 Q 55.1 117.7, 54.8 118.3 L 53.9 117.9 " fill="#0000FF"/>
</svg>