<svg baseProfile="full" height="300px" version="1.1" viewBox="0 0 300 300" width="300px" xml:space="preserve" xmlns="http://www.w3.org/2000/svg" xmlns:rdkit="http://www.rdkit.org/xml" xmlns:xlink="http://www.w3.org/1999/xlink">
<!-- END OF HEADER -->
<rect height="300.0" style="opacity:1.0;fill:#FFFFFF;stroke:none" width="300.0" x="0.0" y="0.0"> </rect>
<path class="bond-0 atom-0 atom-1" d="M 16.4,173.2 L 72.5,159.4" style="fill:none;fill-rule:evenodd;stroke:#000000;stroke-width:2.0px;stroke-linecap:butt;stroke-linejoin:miter;stroke-opacity:1"/>
<path class="bond-0 atom-0 atom-1" d="M 13.6,162.0 L 61.4,150.2" style="fill:none;fill-rule:evenodd;stroke:#000000;stroke-width:2.0px;stroke-linecap:butt;stroke-linejoin:miter;stroke-opacity:1"/>
<path class="bond-0 atom-0 atom-1" d="M 19.2,184.4 L 66.9,172.7" style="fill:none;fill-rule:evenodd;stroke:#000000;stroke-width:2.0px;stroke-linecap:butt;stroke-linejoin:miter;stroke-opacity:1"/>
<path class="bond-1 atom-1 atom-2" d="M 72.5,159.4 L 128.7,145.6" style="fill:none;fill-rule:evenodd;stroke:#000000;stroke-width:2.0px;stroke-linecap:butt;stroke-linejoin:miter;stroke-opacity:1"/>
<path class="bond-2 atom-2 atom-3" d="M 128.7,145.6 L 144.8,90.1" style="fill:none;fill-rule:evenodd;stroke:#000000;stroke-width:2.0px;stroke-linecap:butt;stroke-linejoin:miter;stroke-opacity:1"/>
<path class="bond-3 atom-3 atom-4" d="M 144.8,90.1 L 200.9,76.3" style="fill:none;fill-rule:evenodd;stroke:#000000;stroke-width:2.0px;stroke-linecap:butt;stroke-linejoin:miter;stroke-opacity:1"/>
<path class="bond-4 atom-4 atom-5" d="M 200.9,76.3 L 241.0,118.0" style="fill:none;fill-rule:evenodd;stroke:#000000;stroke-width:2.0px;stroke-linecap:butt;stroke-linejoin:miter;stroke-opacity:1"/>
<path class="bond-5 atom-5 atom-6" d="M 241.0,118.0 L 224.9,173.5" style="fill:none;fill-rule:evenodd;stroke:#000000;stroke-width:2.0px;stroke-linecap:butt;stroke-linejoin:miter;stroke-opacity:1"/>
<path class="bond-6 atom-6 atom-7" d="M 224.9,173.5 L 240.2,189.4" style="fill:none;fill-rule:evenodd;stroke:#000000;stroke-width:2.0px;stroke-linecap:butt;stroke-linejoin:miter;stroke-opacity:1"/>
<path class="bond-6 atom-6 atom-7" d="M 240.2,189.4 L 255.5,205.4" style="fill:none;fill-rule:evenodd;stroke:#FF0000;stroke-width:2.0px;stroke-linecap:butt;stroke-linejoin:miter;stroke-opacity:1"/>
<path class="bond-7 atom-6 atom-8" d="M 224.9,173.5 L 168.7,187.3" style="fill:none;fill-rule:evenodd;stroke:#000000;stroke-width:2.0px;stroke-linecap:butt;stroke-linejoin:miter;stroke-opacity:1"/>
<path class="bond-8 atom-8 atom-2" d="M 168.7,187.3 L 128.7,145.6" style="fill:none;fill-rule:evenodd;stroke:#000000;stroke-width:2.0px;stroke-linecap:butt;stroke-linejoin:miter;stroke-opacity:1"/>
<path class="atom-7" d="M 257.4 215.3 Q 257.4 211.3, 259.3 209.1 Q 261.2 206.9, 264.9 206.9 Q 268.5 206.9, 270.5 209.1 Q 272.4 211.3, 272.4 215.3 Q 272.4 219.2, 270.4 221.5 Q 268.5 223.7, 264.9 223.7 Q 261.3 223.7, 259.3 221.5 Q 257.4 219.3, 257.4 215.3 M 264.9 221.9 Q 267.4 221.9, 268.7 220.2 Q 270.1 218.5, 270.1 215.3 Q 270.1 212.0, 268.7 210.4 Q 267.4 208.8, 264.9 208.8 Q 262.4 208.8, 261.0 210.4 Q 259.7 212.0, 259.7 215.3 Q 259.7 218.6, 261.0 220.2 Q 262.4 221.9, 264.9 221.9 " fill="#FF0000"/>
<path class="atom-7" d="M 273.6 207.1 L 275.8 207.1 L 275.8 214.1 L 284.1 214.1 L 284.1 207.1 L 286.4 207.1 L 286.4 223.5 L 284.1 223.5 L 284.1 215.9 L 275.8 215.9 L 275.8 223.5 L 273.6 223.5 L 273.6 207.1 " fill="#FF0000"/>
</svg>