<svg baseProfile="full" height="300px" version="1.1" viewBox="0 0 300 300" width="300px" xml:space="preserve" xmlns="http://www.w3.org/2000/svg" xmlns:rdkit="http://www.rdkit.org/xml" xmlns:xlink="http://www.w3.org/1999/xlink">
<!-- END OF HEADER -->
<rect height="300.0" style="opacity:1.0;fill:#FFFFFF;stroke:none" width="300.0" x="0.0" y="0.0"> </rect>
<path class="bond-0 atom-0 atom-1" d="M 222.3,251.0 L 190.5,203.9" style="fill:none;fill-rule:evenodd;stroke:#000000;stroke-width:2.0px;stroke-linecap:butt;stroke-linejoin:miter;stroke-opacity:1"/>
<path class="bond-0 atom-0 atom-1" d="M 212.9,257.4 L 185.9,217.4" style="fill:none;fill-rule:evenodd;stroke:#000000;stroke-width:2.0px;stroke-linecap:butt;stroke-linejoin:miter;stroke-opacity:1"/>
<path class="bond-0 atom-0 atom-1" d="M 231.7,244.7 L 204.7,204.6" style="fill:none;fill-rule:evenodd;stroke:#000000;stroke-width:2.0px;stroke-linecap:butt;stroke-linejoin:miter;stroke-opacity:1"/>
<path class="bond-1 atom-1 atom-2" d="M 190.5,203.9 L 158.8,156.8" style="fill:none;fill-rule:evenodd;stroke:#000000;stroke-width:2.0px;stroke-linecap:butt;stroke-linejoin:miter;stroke-opacity:1"/>
<path class="bond-2 atom-2 atom-3" d="M 158.8,156.8 L 102.1,160.8" style="fill:none;fill-rule:evenodd;stroke:#000000;stroke-width:2.0px;stroke-linecap:butt;stroke-linejoin:miter;stroke-opacity:1"/>
<path class="bond-3 atom-3 atom-4" d="M 102.1,160.8 L 70.3,113.7" style="fill:none;fill-rule:evenodd;stroke:#000000;stroke-width:2.0px;stroke-linecap:butt;stroke-linejoin:miter;stroke-opacity:1"/>
<path class="bond-4 atom-4 atom-5" d="M 70.3,113.7 L 13.6,117.6" style="fill:none;fill-rule:evenodd;stroke:#000000;stroke-width:2.0px;stroke-linecap:butt;stroke-linejoin:miter;stroke-opacity:1"/>
<path class="bond-5 atom-2 atom-6" d="M 158.8,156.8 L 183.7,105.8" style="fill:none;fill-rule:evenodd;stroke:#000000;stroke-width:2.0px;stroke-linecap:butt;stroke-linejoin:miter;stroke-opacity:1"/>
<path class="bond-6 atom-6 atom-7" d="M 183.7,105.8 L 240.3,101.8" style="fill:none;fill-rule:evenodd;stroke:#000000;stroke-width:2.0px;stroke-linecap:butt;stroke-linejoin:miter;stroke-opacity:1"/>
<path class="bond-7 atom-7 atom-8" d="M 240.3,101.8 L 250.3,81.4" style="fill:none;fill-rule:evenodd;stroke:#000000;stroke-width:2.0px;stroke-linecap:butt;stroke-linejoin:miter;stroke-opacity:1"/>
<path class="bond-7 atom-7 atom-8" d="M 250.3,81.4 L 260.2,61.0" style="fill:none;fill-rule:evenodd;stroke:#FF0000;stroke-width:2.0px;stroke-linecap:butt;stroke-linejoin:miter;stroke-opacity:1"/>
<path class="atom-8" d="M 257.9 50.8 Q 257.9 46.9, 259.8 44.8 Q 261.7 42.6, 265.3 42.6 Q 268.8 42.6, 270.7 44.8 Q 272.6 46.9, 272.6 50.8 Q 272.6 54.7, 270.7 56.9 Q 268.8 59.1, 265.3 59.1 Q 261.7 59.1, 259.8 56.9 Q 257.9 54.7, 257.9 50.8 M 265.3 57.3 Q 267.7 57.3, 269.0 55.7 Q 270.4 54.0, 270.4 50.8 Q 270.4 47.6, 269.0 46.0 Q 267.7 44.4, 265.3 44.4 Q 262.8 44.4, 261.5 46.0 Q 260.1 47.6, 260.1 50.8 Q 260.1 54.0, 261.5 55.7 Q 262.8 57.3, 265.3 57.3 " fill="#FF0000"/>
<path class="atom-8" d="M 273.8 42.8 L 276.0 42.8 L 276.0 49.6 L 284.2 49.6 L 284.2 42.8 L 286.4 42.8 L 286.4 58.9 L 284.2 58.9 L 284.2 51.4 L 276.0 51.4 L 276.0 58.9 L 273.8 58.9 L 273.8 42.8 " fill="#FF0000"/>
</svg>