<svg baseProfile="full" height="300px" version="1.1" viewBox="0 0 300 300" width="300px" xml:space="preserve" xmlns="http://www.w3.org/2000/svg" xmlns:rdkit="http://www.rdkit.org/xml" xmlns:xlink="http://www.w3.org/1999/xlink">
<!-- END OF HEADER -->
<rect height="300.0" style="opacity:1.0;fill:#FFFFFF;stroke:none" width="300.0" x="0.0" y="0.0"> </rect>
<path class="bond-0 atom-0 atom-1" d="M 286.4,217.1 L 246.0,132.0" style="fill:none;fill-rule:evenodd;stroke:#000000;stroke-width:2.0px;stroke-linecap:butt;stroke-linejoin:miter;stroke-opacity:1"/>
<path class="bond-1 atom-1 atom-2" d="M 246.0,132.0 L 152.1,124.5" style="fill:none;fill-rule:evenodd;stroke:#000000;stroke-width:2.0px;stroke-linecap:butt;stroke-linejoin:miter;stroke-opacity:1"/>
<path class="bond-2 atom-2 atom-3" d="M 152.1,124.5 L 121.0,103.1" style="fill:none;fill-rule:evenodd;stroke:#000000;stroke-width:2.0px;stroke-linecap:butt;stroke-linejoin:miter;stroke-opacity:1"/>
<path class="bond-2 atom-2 atom-3" d="M 121.0,103.1 L 89.9,81.6" style="fill:none;fill-rule:evenodd;stroke:#FF0000;stroke-width:2.0px;stroke-linecap:butt;stroke-linejoin:miter;stroke-opacity:1"/>
<path class="bond-3 atom-3 atom-4" d="M 73.2,88.1 L 70.2,126.5" style="fill:none;fill-rule:evenodd;stroke:#FF0000;stroke-width:2.0px;stroke-linecap:butt;stroke-linejoin:miter;stroke-opacity:1"/>
<path class="bond-3 atom-3 atom-4" d="M 70.2,126.5 L 67.1,164.9" style="fill:none;fill-rule:evenodd;stroke:#000000;stroke-width:2.0px;stroke-linecap:butt;stroke-linejoin:miter;stroke-opacity:1"/>
<path class="bond-4 atom-4 atom-5" d="M 67.1,164.9 L 13.6,242.4" style="fill:none;fill-rule:evenodd;stroke:#000000;stroke-width:2.0px;stroke-linecap:butt;stroke-linejoin:miter;stroke-opacity:1"/>
<path class="bond-5 atom-4 atom-2" d="M 67.1,164.9 L 152.1,124.5" style="fill:none;fill-rule:evenodd;stroke:#000000;stroke-width:2.0px;stroke-linecap:butt;stroke-linejoin:miter;stroke-opacity:1"/>
<path class="atom-3" d="M 62.4 71.1 Q 62.4 64.7, 65.5 61.2 Q 68.7 57.6, 74.6 57.6 Q 80.5 57.6, 83.7 61.2 Q 86.8 64.7, 86.8 71.1 Q 86.8 77.6, 83.6 81.3 Q 80.4 85.0, 74.6 85.0 Q 68.7 85.0, 65.5 81.3 Q 62.4 77.7, 62.4 71.1 M 74.6 81.9 Q 78.7 81.9, 80.8 79.2 Q 83.1 76.5, 83.1 71.1 Q 83.1 65.9, 80.8 63.3 Q 78.7 60.6, 74.6 60.6 Q 70.5 60.6, 68.3 63.2 Q 66.1 65.9, 66.1 71.1 Q 66.1 76.5, 68.3 79.2 Q 70.5 81.9, 74.6 81.9 " fill="#FF0000"/>
</svg>