<svg baseProfile="full" height="300px" version="1.1" viewBox="0 0 300 300" width="300px" xml:space="preserve" xmlns="http://www.w3.org/2000/svg" xmlns:rdkit="http://www.rdkit.org/xml" xmlns:xlink="http://www.w3.org/1999/xlink">
<!-- END OF HEADER -->
<rect height="300.0" style="opacity:1.0;fill:#FFFFFF;stroke:none" width="300.0" x="0.0" y="0.0"> </rect>
<path class="bond-0 atom-0 atom-1" d="M 233.4,256.4 L 199.9,206.8" style="fill:none;fill-rule:evenodd;stroke:#000000;stroke-width:2.0px;stroke-linecap:butt;stroke-linejoin:miter;stroke-opacity:1"/>
<path class="bond-0 atom-0 atom-1" d="M 223.4,263.1 L 195.0,220.9" style="fill:none;fill-rule:evenodd;stroke:#000000;stroke-width:2.0px;stroke-linecap:butt;stroke-linejoin:miter;stroke-opacity:1"/>
<path class="bond-0 atom-0 atom-1" d="M 243.3,249.7 L 214.8,207.5" style="fill:none;fill-rule:evenodd;stroke:#000000;stroke-width:2.0px;stroke-linecap:butt;stroke-linejoin:miter;stroke-opacity:1"/>
<path class="bond-1 atom-1 atom-2" d="M 199.9,206.8 L 166.4,157.2" style="fill:none;fill-rule:evenodd;stroke:#000000;stroke-width:2.0px;stroke-linecap:butt;stroke-linejoin:miter;stroke-opacity:1"/>
<path class="bond-2 atom-2 atom-3" d="M 166.4,157.2 L 106.8,161.4" style="fill:none;fill-rule:evenodd;stroke:#000000;stroke-width:2.0px;stroke-linecap:butt;stroke-linejoin:miter;stroke-opacity:1"/>
<path class="bond-3 atom-3 atom-4" d="M 106.8,161.4 L 73.3,111.8" style="fill:none;fill-rule:evenodd;stroke:#000000;stroke-width:2.0px;stroke-linecap:butt;stroke-linejoin:miter;stroke-opacity:1"/>
<path class="bond-4 atom-4 atom-5" d="M 73.3,111.8 L 13.6,115.9" style="fill:none;fill-rule:evenodd;stroke:#000000;stroke-width:2.0px;stroke-linecap:butt;stroke-linejoin:miter;stroke-opacity:1"/>
<path class="bond-5 atom-2 atom-6" d="M 166.4,157.2 L 177.0,135.5" style="fill:none;fill-rule:evenodd;stroke:#000000;stroke-width:2.0px;stroke-linecap:butt;stroke-linejoin:miter;stroke-opacity:1"/>
<path class="bond-5 atom-2 atom-6" d="M 177.0,135.5 L 187.6,113.9" style="fill:none;fill-rule:evenodd;stroke:#0000FF;stroke-width:2.0px;stroke-linecap:butt;stroke-linejoin:miter;stroke-opacity:1"/>
<path class="bond-6 atom-6 atom-7" d="M 201.1,102.8 L 226.7,101.0" style="fill:none;fill-rule:evenodd;stroke:#0000FF;stroke-width:2.0px;stroke-linecap:butt;stroke-linejoin:miter;stroke-opacity:1"/>
<path class="bond-6 atom-6 atom-7" d="M 226.7,101.0 L 252.4,99.3" style="fill:none;fill-rule:evenodd;stroke:#000000;stroke-width:2.0px;stroke-linecap:butt;stroke-linejoin:miter;stroke-opacity:1"/>
<path class="bond-7 atom-7 atom-8" d="M 247.0,96.6 L 257.5,75.1" style="fill:none;fill-rule:evenodd;stroke:#000000;stroke-width:2.0px;stroke-linecap:butt;stroke-linejoin:miter;stroke-opacity:1"/>
<path class="bond-7 atom-7 atom-8" d="M 257.5,75.1 L 267.9,53.7" style="fill:none;fill-rule:evenodd;stroke:#FF0000;stroke-width:2.0px;stroke-linecap:butt;stroke-linejoin:miter;stroke-opacity:1"/>
<path class="bond-7 atom-7 atom-8" d="M 257.7,101.9 L 268.2,80.4" style="fill:none;fill-rule:evenodd;stroke:#000000;stroke-width:2.0px;stroke-linecap:butt;stroke-linejoin:miter;stroke-opacity:1"/>
<path class="bond-7 atom-7 atom-8" d="M 268.2,80.4 L 278.7,58.9" style="fill:none;fill-rule:evenodd;stroke:#FF0000;stroke-width:2.0px;stroke-linecap:butt;stroke-linejoin:miter;stroke-opacity:1"/>
<path class="atom-6" d="M 171.0 95.0 L 173.3 95.0 L 173.3 102.2 L 181.9 102.2 L 181.9 95.0 L 184.2 95.0 L 184.2 111.9 L 181.9 111.9 L 181.9 104.1 L 173.3 104.1 L 173.3 111.9 L 171.0 111.9 L 171.0 95.0 " fill="#0000FF"/>
<path class="atom-6" d="M 188.9 95.0 L 194.5 103.9 Q 195.0 104.8, 195.9 106.4 Q 196.8 108.0, 196.9 108.1 L 196.9 95.0 L 199.1 95.0 L 199.1 111.9 L 196.8 111.9 L 190.8 102.1 Q 190.1 100.9, 189.4 99.6 Q 188.7 98.3, 188.5 97.9 L 188.5 111.9 L 186.3 111.9 L 186.3 95.0 L 188.9 95.0 " fill="#0000FF"/>
<path class="atom-8" d="M 270.8 45.5 Q 270.8 41.5, 272.8 39.2 Q 274.8 36.9, 278.6 36.9 Q 282.3 36.9, 284.4 39.2 Q 286.4 41.5, 286.4 45.5 Q 286.4 49.6, 284.3 52.0 Q 282.3 54.3, 278.6 54.3 Q 274.9 54.3, 272.8 52.0 Q 270.8 49.7, 270.8 45.5 M 278.6 52.4 Q 281.2 52.4, 282.6 50.7 Q 284.0 48.9, 284.0 45.5 Q 284.0 42.2, 282.6 40.5 Q 281.2 38.8, 278.6 38.8 Q 276.0 38.8, 274.6 40.5 Q 273.2 42.2, 273.2 45.5 Q 273.2 49.0, 274.6 50.7 Q 276.0 52.4, 278.6 52.4 " fill="#FF0000"/>
</svg>