<svg baseProfile="full" height="300px" version="1.1" viewBox="0 0 300 300" width="300px" xml:space="preserve" xmlns="http://www.w3.org/2000/svg" xmlns:rdkit="http://www.rdkit.org/xml" xmlns:xlink="http://www.w3.org/1999/xlink">
<!-- END OF HEADER -->
<rect height="300.0" style="opacity:1.0;fill:#FFFFFF;stroke:none" width="300.0" x="0.0" y="0.0"> </rect>
<path class="bond-0 atom-0 atom-1" d="M 13.6,135.6 L 72.9,133.7" style="fill:none;fill-rule:evenodd;stroke:#000000;stroke-width:2.0px;stroke-linecap:butt;stroke-linejoin:miter;stroke-opacity:1"/>
<path class="bond-1 atom-1 atom-2" d="M 72.9,133.7 L 104.1,184.1" style="fill:none;fill-rule:evenodd;stroke:#000000;stroke-width:2.0px;stroke-linecap:butt;stroke-linejoin:miter;stroke-opacity:1"/>
<path class="bond-2 atom-2 atom-3" d="M 104.1,184.1 L 163.4,182.2" style="fill:none;fill-rule:evenodd;stroke:#000000;stroke-width:2.0px;stroke-linecap:butt;stroke-linejoin:miter;stroke-opacity:1"/>
<path class="bond-3 atom-3 atom-4" d="M 163.4,182.2 L 194.6,232.6" style="fill:none;fill-rule:evenodd;stroke:#000000;stroke-width:2.0px;stroke-linecap:butt;stroke-linejoin:miter;stroke-opacity:1"/>
<path class="bond-4 atom-4 atom-5" d="M 194.6,232.6 L 253.9,230.7" style="fill:none;fill-rule:evenodd;stroke:#000000;stroke-width:2.0px;stroke-linecap:butt;stroke-linejoin:miter;stroke-opacity:1"/>
<path class="bond-5 atom-3 atom-6" d="M 163.4,182.2 L 174.6,161.3" style="fill:none;fill-rule:evenodd;stroke:#000000;stroke-width:2.0px;stroke-linecap:butt;stroke-linejoin:miter;stroke-opacity:1"/>
<path class="bond-5 atom-3 atom-6" d="M 174.6,161.3 L 185.8,140.3" style="fill:none;fill-rule:evenodd;stroke:#0000FF;stroke-width:2.0px;stroke-linecap:butt;stroke-linejoin:miter;stroke-opacity:1"/>
<path class="bond-6 atom-6 atom-7" d="M 199.7,129.7 L 225.2,128.9" style="fill:none;fill-rule:evenodd;stroke:#0000FF;stroke-width:2.0px;stroke-linecap:butt;stroke-linejoin:miter;stroke-opacity:1"/>
<path class="bond-6 atom-6 atom-7" d="M 225.2,128.9 L 250.6,128.1" style="fill:none;fill-rule:evenodd;stroke:#000000;stroke-width:2.0px;stroke-linecap:butt;stroke-linejoin:miter;stroke-opacity:1"/>
<path class="bond-7 atom-7 atom-8" d="M 245.4,125.3 L 256.6,104.6" style="fill:none;fill-rule:evenodd;stroke:#000000;stroke-width:2.0px;stroke-linecap:butt;stroke-linejoin:miter;stroke-opacity:1"/>
<path class="bond-7 atom-7 atom-8" d="M 256.6,104.6 L 267.7,83.8" style="fill:none;fill-rule:evenodd;stroke:#FF0000;stroke-width:2.0px;stroke-linecap:butt;stroke-linejoin:miter;stroke-opacity:1"/>
<path class="bond-7 atom-7 atom-8" d="M 255.9,130.9 L 267.0,110.2" style="fill:none;fill-rule:evenodd;stroke:#000000;stroke-width:2.0px;stroke-linecap:butt;stroke-linejoin:miter;stroke-opacity:1"/>
<path class="bond-7 atom-7 atom-8" d="M 267.0,110.2 L 278.1,89.4" style="fill:none;fill-rule:evenodd;stroke:#FF0000;stroke-width:2.0px;stroke-linecap:butt;stroke-linejoin:miter;stroke-opacity:1"/>
<path class="atom-6" d="M 169.9 121.6 L 172.2 121.6 L 172.2 128.7 L 180.7 128.7 L 180.7 121.6 L 183.0 121.6 L 183.0 138.4 L 180.7 138.4 L 180.7 130.6 L 172.2 130.6 L 172.2 138.4 L 169.9 138.4 L 169.9 121.6 " fill="#0000FF"/>
<path class="atom-6" d="M 187.7 121.6 L 193.2 130.5 Q 193.7 131.4, 194.6 132.9 Q 195.5 134.5, 195.5 134.6 L 195.5 121.6 L 197.8 121.6 L 197.8 138.4 L 195.5 138.4 L 189.6 128.7 Q 188.9 127.5, 188.1 126.2 Q 187.4 124.9, 187.2 124.5 L 187.2 138.4 L 185.0 138.4 L 185.0 121.6 L 187.7 121.6 " fill="#0000FF"/>
<path class="atom-8" d="M 271.0 75.9 Q 271.0 71.9, 272.9 69.6 Q 274.9 67.4, 278.7 67.4 Q 282.4 67.4, 284.4 69.6 Q 286.4 71.9, 286.4 75.9 Q 286.4 80.0, 284.3 82.3 Q 282.3 84.6, 278.7 84.6 Q 275.0 84.6, 272.9 82.3 Q 271.0 80.0, 271.0 75.9 M 278.7 82.7 Q 281.2 82.7, 282.6 81.0 Q 284.0 79.3, 284.0 75.9 Q 284.0 72.6, 282.6 71.0 Q 281.2 69.3, 278.7 69.3 Q 276.1 69.3, 274.7 70.9 Q 273.3 72.6, 273.3 75.9 Q 273.3 79.3, 274.7 81.0 Q 276.1 82.7, 278.7 82.7 " fill="#FF0000"/>
</svg>