<svg baseProfile="full" height="300px" version="1.1" viewBox="0 0 300 300" width="300px" xml:space="preserve" xmlns="http://www.w3.org/2000/svg" xmlns:rdkit="http://www.rdkit.org/xml" xmlns:xlink="http://www.w3.org/1999/xlink">
<!-- END OF HEADER -->
<rect height="300.0" style="opacity:1.0;fill:#FFFFFF;stroke:none" width="300.0" x="0.0" y="0.0"> </rect>
<path class="bond-0 atom-0 atom-1" d="M 284.1,157.7 L 244.8,146.5" style="fill:none;fill-rule:evenodd;stroke:#000000;stroke-width:2.0px;stroke-linecap:butt;stroke-linejoin:miter;stroke-opacity:1"/>
<path class="bond-0 atom-0 atom-1" d="M 281.9,165.5 L 248.4,156.0" style="fill:none;fill-rule:evenodd;stroke:#000000;stroke-width:2.0px;stroke-linecap:butt;stroke-linejoin:miter;stroke-opacity:1"/>
<path class="bond-0 atom-0 atom-1" d="M 286.4,149.8 L 252.9,140.3" style="fill:none;fill-rule:evenodd;stroke:#000000;stroke-width:2.0px;stroke-linecap:butt;stroke-linejoin:miter;stroke-opacity:1"/>
<path class="bond-1 atom-1 atom-2" d="M 244.8,146.5 L 205.4,135.3" style="fill:none;fill-rule:evenodd;stroke:#000000;stroke-width:2.0px;stroke-linecap:butt;stroke-linejoin:miter;stroke-opacity:1"/>
<path class="bond-2 atom-2 atom-3" d="M 205.4,135.3 L 166.0,124.1" style="fill:none;fill-rule:evenodd;stroke:#000000;stroke-width:2.0px;stroke-linecap:butt;stroke-linejoin:miter;stroke-opacity:1"/>
<path class="bond-2 atom-2 atom-3" d="M 197.2,141.5 L 169.7,133.6" style="fill:none;fill-rule:evenodd;stroke:#000000;stroke-width:2.0px;stroke-linecap:butt;stroke-linejoin:miter;stroke-opacity:1"/>
<path class="bond-2 atom-2 atom-3" d="M 201.7,125.7 L 174.1,117.9" style="fill:none;fill-rule:evenodd;stroke:#000000;stroke-width:2.0px;stroke-linecap:butt;stroke-linejoin:miter;stroke-opacity:1"/>
<path class="bond-3 atom-3 atom-4" d="M 166.0,124.1 L 126.6,112.9" style="fill:none;fill-rule:evenodd;stroke:#000000;stroke-width:2.0px;stroke-linecap:butt;stroke-linejoin:miter;stroke-opacity:1"/>
<path class="bond-4 atom-4 atom-5" d="M 126.6,112.9 L 97.2,141.4" style="fill:none;fill-rule:evenodd;stroke:#000000;stroke-width:2.0px;stroke-linecap:butt;stroke-linejoin:miter;stroke-opacity:1"/>
<path class="bond-5 atom-5 atom-6" d="M 97.2,141.4 L 101.3,157.6" style="fill:none;fill-rule:evenodd;stroke:#000000;stroke-width:2.0px;stroke-linecap:butt;stroke-linejoin:miter;stroke-opacity:1"/>
<path class="bond-5 atom-5 atom-6" d="M 101.3,157.6 L 105.4,173.9" style="fill:none;fill-rule:evenodd;stroke:#FF0000;stroke-width:2.0px;stroke-linecap:butt;stroke-linejoin:miter;stroke-opacity:1"/>
<path class="bond-6 atom-5 atom-7" d="M 97.2,141.4 L 57.9,130.2" style="fill:none;fill-rule:evenodd;stroke:#000000;stroke-width:2.0px;stroke-linecap:butt;stroke-linejoin:miter;stroke-opacity:1"/>
<path class="bond-7 atom-7 atom-8" d="M 60.7,133.1 L 48.9,144.6" style="fill:none;fill-rule:evenodd;stroke:#000000;stroke-width:2.0px;stroke-linecap:butt;stroke-linejoin:miter;stroke-opacity:1"/>
<path class="bond-7 atom-7 atom-8" d="M 48.9,144.6 L 37.1,156.1" style="fill:none;fill-rule:evenodd;stroke:#0000FF;stroke-width:2.0px;stroke-linecap:butt;stroke-linejoin:miter;stroke-opacity:1"/>
<path class="bond-7 atom-7 atom-8" d="M 55.0,127.3 L 43.2,138.7" style="fill:none;fill-rule:evenodd;stroke:#000000;stroke-width:2.0px;stroke-linecap:butt;stroke-linejoin:miter;stroke-opacity:1"/>
<path class="bond-7 atom-7 atom-8" d="M 43.2,138.7 L 31.4,150.2" style="fill:none;fill-rule:evenodd;stroke:#0000FF;stroke-width:2.0px;stroke-linecap:butt;stroke-linejoin:miter;stroke-opacity:1"/>
<path class="atom-6" d="M 101.9 181.1 Q 101.9 178.3, 103.3 176.8 Q 104.7 175.2, 107.2 175.2 Q 109.8 175.2, 111.2 176.8 Q 112.6 178.3, 112.6 181.1 Q 112.6 183.9, 111.2 185.5 Q 109.8 187.1, 107.2 187.1 Q 104.7 187.1, 103.3 185.5 Q 101.9 183.9, 101.9 181.1 M 107.2 185.8 Q 109.0 185.8, 110.0 184.6 Q 110.9 183.4, 110.9 181.1 Q 110.9 178.8, 110.0 177.7 Q 109.0 176.5, 107.2 176.5 Q 105.5 176.5, 104.5 177.7 Q 103.6 178.8, 103.6 181.1 Q 103.6 183.5, 104.5 184.6 Q 105.5 185.8, 107.2 185.8 " fill="#FF0000"/>
<path class="atom-6" d="M 113.4 175.3 L 115.0 175.3 L 115.0 180.3 L 120.9 180.3 L 120.9 175.3 L 122.5 175.3 L 122.5 186.9 L 120.9 186.9 L 120.9 181.6 L 115.0 181.6 L 115.0 186.9 L 113.4 186.9 L 113.4 175.3 " fill="#FF0000"/>
<path class="atom-8" d="M 13.6 152.9 L 15.2 152.9 L 15.2 157.8 L 21.1 157.8 L 21.1 152.9 L 22.7 152.9 L 22.7 164.5 L 21.1 164.5 L 21.1 159.1 L 15.2 159.1 L 15.2 164.5 L 13.6 164.5 L 13.6 152.9 " fill="#0000FF"/>
<path class="atom-8" d="M 25.9 152.9 L 29.7 159.0 Q 30.1 159.6, 30.7 160.7 Q 31.3 161.8, 31.4 161.9 L 31.4 152.9 L 32.9 152.9 L 32.9 164.5 L 31.3 164.5 L 27.2 157.8 Q 26.8 157.0, 26.2 156.1 Q 25.8 155.2, 25.6 154.9 L 25.6 164.5 L 24.1 164.5 L 24.1 152.9 L 25.9 152.9 " fill="#0000FF"/>
</svg>