<svg baseProfile="full" height="300px" version="1.1" viewBox="0 0 300 300" width="300px" xml:space="preserve" xmlns="http://www.w3.org/2000/svg" xmlns:rdkit="http://www.rdkit.org/xml" xmlns:xlink="http://www.w3.org/1999/xlink">
<!-- END OF HEADER -->
<rect height="300.0" style="opacity:1.0;fill:#FFFFFF;stroke:none" width="300.0" x="0.0" y="0.0"> </rect>
<path class="bond-0 atom-0 atom-1" d="M 284.1,157.6 L 244.9,146.5" style="fill:none;fill-rule:evenodd;stroke:#000000;stroke-width:2.0px;stroke-linecap:butt;stroke-linejoin:miter;stroke-opacity:1"/>
<path class="bond-0 atom-0 atom-1" d="M 281.9,165.5 L 248.5,156.0" style="fill:none;fill-rule:evenodd;stroke:#000000;stroke-width:2.0px;stroke-linecap:butt;stroke-linejoin:miter;stroke-opacity:1"/>
<path class="bond-0 atom-0 atom-1" d="M 286.4,149.8 L 253.0,140.3" style="fill:none;fill-rule:evenodd;stroke:#000000;stroke-width:2.0px;stroke-linecap:butt;stroke-linejoin:miter;stroke-opacity:1"/>
<path class="bond-1 atom-1 atom-2" d="M 244.9,146.5 L 205.7,135.3" style="fill:none;fill-rule:evenodd;stroke:#000000;stroke-width:2.0px;stroke-linecap:butt;stroke-linejoin:miter;stroke-opacity:1"/>
<path class="bond-2 atom-2 atom-3" d="M 205.7,135.3 L 166.4,124.2" style="fill:none;fill-rule:evenodd;stroke:#000000;stroke-width:2.0px;stroke-linecap:butt;stroke-linejoin:miter;stroke-opacity:1"/>
<path class="bond-2 atom-2 atom-3" d="M 197.5,141.5 L 170.1,133.7" style="fill:none;fill-rule:evenodd;stroke:#000000;stroke-width:2.0px;stroke-linecap:butt;stroke-linejoin:miter;stroke-opacity:1"/>
<path class="bond-2 atom-2 atom-3" d="M 202.0,125.8 L 174.5,118.0" style="fill:none;fill-rule:evenodd;stroke:#000000;stroke-width:2.0px;stroke-linecap:butt;stroke-linejoin:miter;stroke-opacity:1"/>
<path class="bond-3 atom-3 atom-4" d="M 166.4,124.2 L 127.2,113.0" style="fill:none;fill-rule:evenodd;stroke:#000000;stroke-width:2.0px;stroke-linecap:butt;stroke-linejoin:miter;stroke-opacity:1"/>
<path class="bond-4 atom-4 atom-5" d="M 127.2,113.0 L 97.9,141.4" style="fill:none;fill-rule:evenodd;stroke:#000000;stroke-width:2.0px;stroke-linecap:butt;stroke-linejoin:miter;stroke-opacity:1"/>
<path class="bond-5 atom-5 atom-6" d="M 97.9,141.4 L 102.0,157.6" style="fill:none;fill-rule:evenodd;stroke:#000000;stroke-width:2.0px;stroke-linecap:butt;stroke-linejoin:miter;stroke-opacity:1"/>
<path class="bond-5 atom-5 atom-6" d="M 102.0,157.6 L 106.0,173.8" style="fill:none;fill-rule:evenodd;stroke:#FF0000;stroke-width:2.0px;stroke-linecap:butt;stroke-linejoin:miter;stroke-opacity:1"/>
<path class="bond-6 atom-5 atom-7" d="M 97.9,141.4 L 58.6,130.3" style="fill:none;fill-rule:evenodd;stroke:#000000;stroke-width:2.0px;stroke-linecap:butt;stroke-linejoin:miter;stroke-opacity:1"/>
<path class="bond-7 atom-7 atom-8" d="M 58.6,130.3 L 47.3,141.2" style="fill:none;fill-rule:evenodd;stroke:#000000;stroke-width:2.0px;stroke-linecap:butt;stroke-linejoin:miter;stroke-opacity:1"/>
<path class="bond-7 atom-7 atom-8" d="M 47.3,141.2 L 36.0,152.2" style="fill:none;fill-rule:evenodd;stroke:#FF0000;stroke-width:2.0px;stroke-linecap:butt;stroke-linejoin:miter;stroke-opacity:1"/>
<path class="atom-6" d="M 102.5 181.0 Q 102.5 178.2, 103.9 176.7 Q 105.3 175.1, 107.8 175.1 Q 110.4 175.1, 111.8 176.7 Q 113.2 178.2, 113.2 181.0 Q 113.2 183.8, 111.8 185.4 Q 110.4 187.0, 107.8 187.0 Q 105.3 187.0, 103.9 185.4 Q 102.5 183.8, 102.5 181.0 M 107.8 185.7 Q 109.6 185.7, 110.6 184.5 Q 111.5 183.3, 111.5 181.0 Q 111.5 178.7, 110.6 177.6 Q 109.6 176.4, 107.8 176.4 Q 106.1 176.4, 105.1 177.6 Q 104.2 178.7, 104.2 181.0 Q 104.2 183.3, 105.1 184.5 Q 106.1 185.7, 107.8 185.7 " fill="#FF0000"/>
<path class="atom-6" d="M 114.0 175.3 L 115.5 175.3 L 115.5 180.2 L 121.4 180.2 L 121.4 175.3 L 123.0 175.3 L 123.0 186.8 L 121.4 186.8 L 121.4 181.5 L 115.5 181.5 L 115.5 186.8 L 114.0 186.8 L 114.0 175.3 " fill="#FF0000"/>
<path class="atom-8" d="M 13.6 152.9 L 15.2 152.9 L 15.2 157.9 L 21.1 157.9 L 21.1 152.9 L 22.7 152.9 L 22.7 164.5 L 21.1 164.5 L 21.1 159.2 L 15.2 159.2 L 15.2 164.5 L 13.6 164.5 L 13.6 152.9 " fill="#FF0000"/>
<path class="atom-8" d="M 24.1 158.7 Q 24.1 155.9, 25.4 154.4 Q 26.8 152.8, 29.4 152.8 Q 31.9 152.8, 33.3 154.4 Q 34.7 155.9, 34.7 158.7 Q 34.7 161.5, 33.3 163.1 Q 31.9 164.7, 29.4 164.7 Q 26.8 164.7, 25.4 163.1 Q 24.1 161.5, 24.1 158.7 M 29.4 163.4 Q 31.1 163.4, 32.1 162.2 Q 33.0 161.0, 33.0 158.7 Q 33.0 156.4, 32.1 155.3 Q 31.1 154.1, 29.4 154.1 Q 27.6 154.1, 26.6 155.3 Q 25.7 156.4, 25.7 158.7 Q 25.7 161.0, 26.6 162.2 Q 27.6 163.4, 29.4 163.4 " fill="#FF0000"/>
</svg>